<mxfile host="Electron" agent="Mozilla/5.0 (Windows NT 10.0; Win64; x64) AppleWebKit/537.36 (KHTML, like Gecko) draw.io/24.7.5 Chrome/126.0.6478.183 Electron/31.3.0 Safari/537.36" version="24.7.5">
  <diagram name="Seite-1" id="5WbFImgOZ29d72iramgY">
    <mxGraphModel dx="528" dy="341" grid="1" gridSize="10" guides="1" tooltips="1" connect="1" arrows="1" fold="1" page="1" pageScale="1" pageWidth="827" pageHeight="1169" math="0" shadow="0">
      <root>
        <mxCell id="0" />
        <mxCell id="1" parent="0" />
        <mxCell id="MC2AqYIewqk88VeBDW5k-1" value="Küchenquest" style="rounded=0;whiteSpace=wrap;html=1;fillColor=#ffff88;strokeColor=#36393d;" parent="1" vertex="1">
          <mxGeometry x="320" y="40" width="120" height="60" as="geometry" />
        </mxCell>
        <mxCell id="MC2AqYIewqk88VeBDW5k-2" value="Jonas" style="rounded=0;whiteSpace=wrap;html=1;fillColor=#ffff88;strokeColor=#36393d;" parent="1" vertex="1">
          <mxGeometry x="80" y="160" width="120" height="60" as="geometry" />
        </mxCell>
        <mxCell id="MC2AqYIewqk88VeBDW5k-3" value="Florian" style="rounded=0;whiteSpace=wrap;html=1;fillColor=#ffff88;strokeColor=#36393d;" parent="1" vertex="1">
          <mxGeometry x="240" y="160" width="120" height="60" as="geometry" />
        </mxCell>
        <mxCell id="MC2AqYIewqk88VeBDW5k-4" value="Cornelius" style="rounded=0;whiteSpace=wrap;html=1;fillColor=#ffff88;strokeColor=#36393d;" parent="1" vertex="1">
          <mxGeometry x="400" y="160" width="120" height="60" as="geometry" />
        </mxCell>
        <mxCell id="MC2AqYIewqk88VeBDW5k-5" value="Niklas" style="rounded=0;whiteSpace=wrap;html=1;fillColor=#ffff88;strokeColor=#36393d;" parent="1" vertex="1">
          <mxGeometry x="560" y="160" width="120" height="60" as="geometry" />
        </mxCell>
        <mxCell id="MC2AqYIewqk88VeBDW5k-6" value="" style="endArrow=classic;html=1;rounded=0;exitX=0;exitY=0.5;exitDx=0;exitDy=0;entryX=0.5;entryY=0;entryDx=0;entryDy=0;" parent="1" source="MC2AqYIewqk88VeBDW5k-1" target="MC2AqYIewqk88VeBDW5k-2" edge="1">
          <mxGeometry width="50" height="50" relative="1" as="geometry">
            <mxPoint x="360" y="260" as="sourcePoint" />
            <mxPoint x="410" y="210" as="targetPoint" />
            <Array as="points">
              <mxPoint x="140" y="70" />
            </Array>
          </mxGeometry>
        </mxCell>
        <mxCell id="MC2AqYIewqk88VeBDW5k-7" value="" style="endArrow=classic;html=1;rounded=0;exitX=0.25;exitY=1;exitDx=0;exitDy=0;entryX=0.5;entryY=0;entryDx=0;entryDy=0;" parent="1" source="MC2AqYIewqk88VeBDW5k-1" target="MC2AqYIewqk88VeBDW5k-3" edge="1">
          <mxGeometry width="50" height="50" relative="1" as="geometry">
            <mxPoint x="360" y="260" as="sourcePoint" />
            <mxPoint x="410" y="210" as="targetPoint" />
          </mxGeometry>
        </mxCell>
        <mxCell id="MC2AqYIewqk88VeBDW5k-8" value="" style="endArrow=classic;html=1;rounded=0;exitX=0.678;exitY=0.972;exitDx=0;exitDy=0;exitPerimeter=0;entryX=0.5;entryY=0;entryDx=0;entryDy=0;" parent="1" source="MC2AqYIewqk88VeBDW5k-1" target="MC2AqYIewqk88VeBDW5k-4" edge="1">
          <mxGeometry width="50" height="50" relative="1" as="geometry">
            <mxPoint x="360" y="260" as="sourcePoint" />
            <mxPoint x="410" y="210" as="targetPoint" />
          </mxGeometry>
        </mxCell>
        <mxCell id="MC2AqYIewqk88VeBDW5k-9" value="" style="endArrow=classic;html=1;rounded=0;exitX=1;exitY=0.5;exitDx=0;exitDy=0;entryX=0.5;entryY=0;entryDx=0;entryDy=0;" parent="1" source="MC2AqYIewqk88VeBDW5k-1" target="MC2AqYIewqk88VeBDW5k-5" edge="1">
          <mxGeometry width="50" height="50" relative="1" as="geometry">
            <mxPoint x="360" y="260" as="sourcePoint" />
            <mxPoint x="410" y="210" as="targetPoint" />
            <Array as="points">
              <mxPoint x="620" y="70" />
            </Array>
          </mxGeometry>
        </mxCell>
        <mxCell id="MC2AqYIewqk88VeBDW5k-12" value="Datenmodelle&lt;div&gt;konzipieren&lt;/div&gt;" style="rounded=0;whiteSpace=wrap;html=1;fillColor=#fad9d5;strokeColor=#ae4132;" parent="1" vertex="1">
          <mxGeometry x="90" y="280" width="140" height="40" as="geometry" />
        </mxCell>
        <mxCell id="MC2AqYIewqk88VeBDW5k-13" value="Datenmodell&lt;div&gt;entwickeln&lt;/div&gt;" style="rounded=0;whiteSpace=wrap;html=1;fillColor=#fad9d5;strokeColor=#ae4132;" parent="1" vertex="1">
          <mxGeometry x="90" y="330" width="140" height="40" as="geometry" />
        </mxCell>
        <mxCell id="MC2AqYIewqk88VeBDW5k-14" value="Installationsskript&lt;div&gt;erstellen&lt;/div&gt;" style="rounded=0;whiteSpace=wrap;html=1;fillColor=#fad9d5;strokeColor=#ae4132;" parent="1" vertex="1">
          <mxGeometry x="90" y="230" width="140" height="40" as="geometry" />
        </mxCell>
        <mxCell id="MC2AqYIewqk88VeBDW5k-17" value="Datenbankanbindung&lt;div&gt;der API testen&lt;/div&gt;" style="rounded=0;whiteSpace=wrap;html=1;fillColor=#b1ddf0;strokeColor=#10739e;" parent="1" vertex="1">
          <mxGeometry x="90" y="380" width="140" height="40" as="geometry" />
        </mxCell>
        <mxCell id="MC2AqYIewqk88VeBDW5k-18" value="API testen" style="rounded=0;whiteSpace=wrap;html=1;fillColor=#b1ddf0;strokeColor=#10739e;" parent="1" vertex="1">
          <mxGeometry x="90" y="430" width="140" height="40" as="geometry" />
        </mxCell>
        <mxCell id="MC2AqYIewqk88VeBDW5k-19" value="OpenFoodFacts API testen" style="rounded=0;whiteSpace=wrap;html=1;fillColor=#b1ddf0;strokeColor=#10739e;" parent="1" vertex="1">
          <mxGeometry x="90" y="480" width="140" height="40" as="geometry" />
        </mxCell>
        <mxCell id="MC2AqYIewqk88VeBDW5k-20" value="Dokumentation" style="rounded=0;whiteSpace=wrap;html=1;fillColor=#f5f5f5;fontColor=#333333;strokeColor=#666666;" parent="1" vertex="1">
          <mxGeometry x="90" y="530" width="140" height="40" as="geometry" />
        </mxCell>
        <mxCell id="MC2AqYIewqk88VeBDW5k-21" value="Dark-/Lightmode" style="rounded=0;whiteSpace=wrap;html=1;fillColor=#ffe6cc;strokeColor=#d79b00;" parent="1" vertex="1">
          <mxGeometry x="410" y="230" width="140" height="40" as="geometry" />
        </mxCell>
        <mxCell id="MC2AqYIewqk88VeBDW5k-22" value="Rezepte abfragen/anzeigen" style="rounded=0;whiteSpace=wrap;html=1;fillColor=#ffe6cc;strokeColor=#d79b00;" parent="1" vertex="1">
          <mxGeometry x="410" y="280" width="140" height="40" as="geometry" />
        </mxCell>
        <mxCell id="MC2AqYIewqk88VeBDW5k-24" value="Filterlogik" style="rounded=0;whiteSpace=wrap;html=1;fillColor=#ffe6cc;strokeColor=#d79b00;" parent="1" vertex="1">
          <mxGeometry x="490" y="490" width="140" height="40" as="geometry" />
        </mxCell>
        <mxCell id="MC2AqYIewqk88VeBDW5k-25" value="Rezept (öffentlich)&lt;div&gt;&amp;nbsp;erstellen/speichern&lt;/div&gt;" style="rounded=0;whiteSpace=wrap;html=1;fillColor=#ffe6cc;strokeColor=#d79b00;" parent="1" vertex="1">
          <mxGeometry x="570" y="230" width="140" height="40" as="geometry" />
        </mxCell>
        <mxCell id="MC2AqYIewqk88VeBDW5k-26" value="Barcode Scanner" style="rounded=0;whiteSpace=wrap;html=1;fillColor=#ffe6cc;strokeColor=#d79b00;" parent="1" vertex="1">
          <mxGeometry x="250" y="230" width="140" height="40" as="geometry" />
        </mxCell>
        <mxCell id="MC2AqYIewqk88VeBDW5k-28" value="Rezept (lokal)&lt;div&gt;&amp;nbsp;erstellen/speichern&lt;/div&gt;" style="rounded=0;whiteSpace=wrap;html=1;fillColor=#ffe6cc;strokeColor=#d79b00;" parent="1" vertex="1">
          <mxGeometry x="570" y="280" width="140" height="40" as="geometry" />
        </mxCell>
        <mxCell id="MC2AqYIewqk88VeBDW5k-29" value="Login UI" style="rounded=0;whiteSpace=wrap;html=1;fillColor=#e1d5e7;strokeColor=#9673a6;" parent="1" vertex="1">
          <mxGeometry x="570" y="330" width="140" height="40" as="geometry" />
        </mxCell>
        <mxCell id="MC2AqYIewqk88VeBDW5k-30" value="Startseite" style="rounded=0;whiteSpace=wrap;html=1;fillColor=#e1d5e7;strokeColor=#9673a6;" parent="1" vertex="1">
          <mxGeometry x="250" y="280" width="140" height="40" as="geometry" />
        </mxCell>
        <mxCell id="MC2AqYIewqk88VeBDW5k-31" value="eigene Rezepte" style="rounded=0;whiteSpace=wrap;html=1;fillColor=#e1d5e7;strokeColor=#9673a6;" parent="1" vertex="1">
          <mxGeometry x="410" y="330" width="140" height="40" as="geometry" />
        </mxCell>
        <mxCell id="MC2AqYIewqk88VeBDW5k-32" value="Öffentliche Rezepte" style="rounded=0;whiteSpace=wrap;html=1;fillColor=#e1d5e7;strokeColor=#9673a6;" parent="1" vertex="1">
          <mxGeometry x="570" y="380" width="140" height="40" as="geometry" />
        </mxCell>
        <mxCell id="MC2AqYIewqk88VeBDW5k-33" value="Achievments&lt;div&gt;Fortschritt&lt;/div&gt;" style="rounded=0;whiteSpace=wrap;html=1;fillColor=#e1d5e7;strokeColor=#9673a6;" parent="1" vertex="1">
          <mxGeometry x="490" y="540" width="140" height="40" as="geometry" />
        </mxCell>
        <mxCell id="MC2AqYIewqk88VeBDW5k-34" value="Navigation" style="rounded=0;whiteSpace=wrap;html=1;fillColor=#e1d5e7;strokeColor=#9673a6;" parent="1" vertex="1">
          <mxGeometry x="250" y="380" width="140" height="40" as="geometry" />
        </mxCell>
        <mxCell id="MC2AqYIewqk88VeBDW5k-35" value="Barcode Scanner UI" style="rounded=0;whiteSpace=wrap;html=1;fillColor=#e1d5e7;strokeColor=#9673a6;" parent="1" vertex="1">
          <mxGeometry x="250" y="330" width="140" height="40" as="geometry" />
        </mxCell>
        <mxCell id="MC2AqYIewqk88VeBDW5k-36" value="" style="endArrow=none;html=1;rounded=0;entryX=0;entryY=1;entryDx=0;entryDy=0;exitX=0;exitY=0.5;exitDx=0;exitDy=0;" parent="1" source="MC2AqYIewqk88VeBDW5k-20" target="MC2AqYIewqk88VeBDW5k-2" edge="1">
          <mxGeometry width="50" height="50" relative="1" as="geometry">
            <mxPoint x="80" y="550" as="sourcePoint" />
            <mxPoint x="380" y="370" as="targetPoint" />
            <Array as="points">
              <mxPoint x="80" y="550" />
            </Array>
          </mxGeometry>
        </mxCell>
        <mxCell id="MC2AqYIewqk88VeBDW5k-37" value="Dokumentation" style="rounded=0;whiteSpace=wrap;html=1;fillColor=#f5f5f5;fontColor=#333333;strokeColor=#666666;" parent="1" vertex="1">
          <mxGeometry x="250" y="430" width="140" height="40" as="geometry" />
        </mxCell>
        <mxCell id="MC2AqYIewqk88VeBDW5k-38" value="Dokumentation" style="rounded=0;whiteSpace=wrap;html=1;fillColor=#f5f5f5;fontColor=#333333;strokeColor=#666666;" parent="1" vertex="1">
          <mxGeometry x="410" y="380" width="140" height="40" as="geometry" />
        </mxCell>
        <mxCell id="MC2AqYIewqk88VeBDW5k-39" value="Dokumentation" style="rounded=0;whiteSpace=wrap;html=1;fillColor=#f5f5f5;fontColor=#333333;strokeColor=#666666;" parent="1" vertex="1">
          <mxGeometry x="570" y="430" width="140" height="40" as="geometry" />
        </mxCell>
        <mxCell id="MC2AqYIewqk88VeBDW5k-40" value="" style="endArrow=none;html=1;rounded=0;entryX=0;entryY=1;entryDx=0;entryDy=0;exitX=0;exitY=0.5;exitDx=0;exitDy=0;" parent="1" source="MC2AqYIewqk88VeBDW5k-37" target="MC2AqYIewqk88VeBDW5k-3" edge="1">
          <mxGeometry width="50" height="50" relative="1" as="geometry">
            <mxPoint x="360" y="430" as="sourcePoint" />
            <mxPoint x="410" y="380" as="targetPoint" />
            <Array as="points">
              <mxPoint x="240" y="450" />
            </Array>
          </mxGeometry>
        </mxCell>
        <mxCell id="MC2AqYIewqk88VeBDW5k-42" value="" style="endArrow=none;html=1;rounded=0;entryX=0;entryY=1;entryDx=0;entryDy=0;exitX=0;exitY=0.5;exitDx=0;exitDy=0;" parent="1" source="MC2AqYIewqk88VeBDW5k-38" target="MC2AqYIewqk88VeBDW5k-4" edge="1">
          <mxGeometry width="50" height="50" relative="1" as="geometry">
            <mxPoint x="400" y="400" as="sourcePoint" />
            <mxPoint x="450" y="350" as="targetPoint" />
            <Array as="points">
              <mxPoint x="400" y="400" />
            </Array>
          </mxGeometry>
        </mxCell>
        <mxCell id="MC2AqYIewqk88VeBDW5k-43" value="" style="endArrow=none;html=1;rounded=0;entryX=0;entryY=1;entryDx=0;entryDy=0;exitX=0;exitY=0.5;exitDx=0;exitDy=0;" parent="1" source="MC2AqYIewqk88VeBDW5k-39" target="MC2AqYIewqk88VeBDW5k-5" edge="1">
          <mxGeometry width="50" height="50" relative="1" as="geometry">
            <mxPoint x="540" y="340" as="sourcePoint" />
            <mxPoint x="590" y="290" as="targetPoint" />
            <Array as="points">
              <mxPoint x="560" y="450" />
            </Array>
          </mxGeometry>
        </mxCell>
        <mxCell id="MC2AqYIewqk88VeBDW5k-44" value="" style="endArrow=none;html=1;rounded=0;exitX=0.5;exitY=0;exitDx=0;exitDy=0;" parent="1" source="MC2AqYIewqk88VeBDW5k-24" edge="1">
          <mxGeometry width="50" height="50" relative="1" as="geometry">
            <mxPoint x="490" y="470" as="sourcePoint" />
            <mxPoint x="560" y="450" as="targetPoint" />
          </mxGeometry>
        </mxCell>
        <mxCell id="MC2AqYIewqk88VeBDW5k-45" value="" style="endArrow=none;html=1;rounded=0;exitX=0;exitY=0.5;exitDx=0;exitDy=0;" parent="1" source="MC2AqYIewqk88VeBDW5k-33" edge="1">
          <mxGeometry width="50" height="50" relative="1" as="geometry">
            <mxPoint x="400" y="550" as="sourcePoint" />
            <mxPoint x="400" y="400" as="targetPoint" />
            <Array as="points">
              <mxPoint x="400" y="560" />
            </Array>
          </mxGeometry>
        </mxCell>
        <mxCell id="MC2AqYIewqk88VeBDW5k-46" value="" style="endArrow=none;html=1;rounded=0;entryX=0;entryY=0.5;entryDx=0;entryDy=0;" parent="1" target="MC2AqYIewqk88VeBDW5k-24" edge="1">
          <mxGeometry width="50" height="50" relative="1" as="geometry">
            <mxPoint x="400" y="510" as="sourcePoint" />
            <mxPoint x="560" y="480" as="targetPoint" />
          </mxGeometry>
        </mxCell>
        <mxCell id="MC2AqYIewqk88VeBDW5k-47" value="" style="endArrow=none;html=1;rounded=0;entryX=0.5;entryY=1;entryDx=0;entryDy=0;exitX=0.5;exitY=0;exitDx=0;exitDy=0;" parent="1" source="MC2AqYIewqk88VeBDW5k-33" target="MC2AqYIewqk88VeBDW5k-24" edge="1">
          <mxGeometry width="50" height="50" relative="1" as="geometry">
            <mxPoint x="540" y="530" as="sourcePoint" />
            <mxPoint x="590" y="480" as="targetPoint" />
          </mxGeometry>
        </mxCell>
        <mxCell id="MC2AqYIewqk88VeBDW5k-48" value="" style="endArrow=none;html=1;rounded=0;entryX=0;entryY=0.5;entryDx=0;entryDy=0;" parent="1" target="MC2AqYIewqk88VeBDW5k-14" edge="1">
          <mxGeometry width="50" height="50" relative="1" as="geometry">
            <mxPoint x="80" y="250" as="sourcePoint" />
            <mxPoint x="170" y="370" as="targetPoint" />
          </mxGeometry>
        </mxCell>
        <mxCell id="MC2AqYIewqk88VeBDW5k-50" value="" style="endArrow=none;html=1;rounded=0;exitX=0;exitY=0.5;exitDx=0;exitDy=0;" parent="1" source="MC2AqYIewqk88VeBDW5k-12" edge="1">
          <mxGeometry width="50" height="50" relative="1" as="geometry">
            <mxPoint x="90" y="340" as="sourcePoint" />
            <mxPoint x="80" y="300" as="targetPoint" />
          </mxGeometry>
        </mxCell>
        <mxCell id="MC2AqYIewqk88VeBDW5k-51" value="" style="endArrow=none;html=1;rounded=0;entryX=0;entryY=0.5;entryDx=0;entryDy=0;" parent="1" target="MC2AqYIewqk88VeBDW5k-13" edge="1">
          <mxGeometry width="50" height="50" relative="1" as="geometry">
            <mxPoint x="80" y="350" as="sourcePoint" />
            <mxPoint x="140" y="290" as="targetPoint" />
          </mxGeometry>
        </mxCell>
        <mxCell id="MC2AqYIewqk88VeBDW5k-52" value="" style="endArrow=none;html=1;rounded=0;entryX=0;entryY=0.5;entryDx=0;entryDy=0;" parent="1" target="MC2AqYIewqk88VeBDW5k-17" edge="1">
          <mxGeometry width="50" height="50" relative="1" as="geometry">
            <mxPoint x="80" y="400" as="sourcePoint" />
            <mxPoint x="140" y="290" as="targetPoint" />
          </mxGeometry>
        </mxCell>
        <mxCell id="MC2AqYIewqk88VeBDW5k-53" value="" style="endArrow=none;html=1;rounded=0;entryX=0;entryY=0.5;entryDx=0;entryDy=0;" parent="1" target="MC2AqYIewqk88VeBDW5k-19" edge="1">
          <mxGeometry width="50" height="50" relative="1" as="geometry">
            <mxPoint x="80" y="500" as="sourcePoint" />
            <mxPoint x="140" y="460" as="targetPoint" />
          </mxGeometry>
        </mxCell>
        <mxCell id="MC2AqYIewqk88VeBDW5k-54" value="" style="endArrow=none;html=1;rounded=0;entryX=0;entryY=0.5;entryDx=0;entryDy=0;" parent="1" target="MC2AqYIewqk88VeBDW5k-18" edge="1">
          <mxGeometry width="50" height="50" relative="1" as="geometry">
            <mxPoint x="80" y="450" as="sourcePoint" />
            <mxPoint x="120" y="450" as="targetPoint" />
          </mxGeometry>
        </mxCell>
        <mxCell id="MC2AqYIewqk88VeBDW5k-55" value="" style="endArrow=none;html=1;rounded=0;entryX=0;entryY=0.5;entryDx=0;entryDy=0;" parent="1" target="MC2AqYIewqk88VeBDW5k-26" edge="1">
          <mxGeometry width="50" height="50" relative="1" as="geometry">
            <mxPoint x="240" y="250" as="sourcePoint" />
            <mxPoint x="280" y="270" as="targetPoint" />
          </mxGeometry>
        </mxCell>
        <mxCell id="MC2AqYIewqk88VeBDW5k-56" value="" style="endArrow=none;html=1;rounded=0;entryX=0;entryY=0.5;entryDx=0;entryDy=0;" parent="1" target="MC2AqYIewqk88VeBDW5k-30" edge="1">
          <mxGeometry width="50" height="50" relative="1" as="geometry">
            <mxPoint x="240" y="300" as="sourcePoint" />
            <mxPoint x="280" y="270" as="targetPoint" />
          </mxGeometry>
        </mxCell>
        <mxCell id="MC2AqYIewqk88VeBDW5k-57" value="" style="endArrow=none;html=1;rounded=0;entryX=0;entryY=0.5;entryDx=0;entryDy=0;" parent="1" target="MC2AqYIewqk88VeBDW5k-35" edge="1">
          <mxGeometry width="50" height="50" relative="1" as="geometry">
            <mxPoint x="240" y="350" as="sourcePoint" />
            <mxPoint x="290" y="360" as="targetPoint" />
          </mxGeometry>
        </mxCell>
        <mxCell id="MC2AqYIewqk88VeBDW5k-58" value="" style="endArrow=none;html=1;rounded=0;entryX=0;entryY=0.5;entryDx=0;entryDy=0;" parent="1" target="MC2AqYIewqk88VeBDW5k-34" edge="1">
          <mxGeometry width="50" height="50" relative="1" as="geometry">
            <mxPoint x="240" y="400" as="sourcePoint" />
            <mxPoint x="290" y="360" as="targetPoint" />
          </mxGeometry>
        </mxCell>
        <mxCell id="MC2AqYIewqk88VeBDW5k-59" value="" style="endArrow=none;html=1;rounded=0;entryX=0;entryY=0.5;entryDx=0;entryDy=0;" parent="1" target="MC2AqYIewqk88VeBDW5k-21" edge="1">
          <mxGeometry width="50" height="50" relative="1" as="geometry">
            <mxPoint x="400" y="250" as="sourcePoint" />
            <mxPoint x="470" y="270" as="targetPoint" />
          </mxGeometry>
        </mxCell>
        <mxCell id="MC2AqYIewqk88VeBDW5k-60" value="" style="endArrow=none;html=1;rounded=0;entryX=0;entryY=0.5;entryDx=0;entryDy=0;" parent="1" target="MC2AqYIewqk88VeBDW5k-22" edge="1">
          <mxGeometry width="50" height="50" relative="1" as="geometry">
            <mxPoint x="400" y="300" as="sourcePoint" />
            <mxPoint x="470" y="270" as="targetPoint" />
          </mxGeometry>
        </mxCell>
        <mxCell id="MC2AqYIewqk88VeBDW5k-61" value="" style="endArrow=none;html=1;rounded=0;entryX=0;entryY=0.5;entryDx=0;entryDy=0;" parent="1" target="MC2AqYIewqk88VeBDW5k-31" edge="1">
          <mxGeometry width="50" height="50" relative="1" as="geometry">
            <mxPoint x="400" y="350" as="sourcePoint" />
            <mxPoint x="470" y="360" as="targetPoint" />
          </mxGeometry>
        </mxCell>
        <mxCell id="MC2AqYIewqk88VeBDW5k-62" value="" style="endArrow=none;html=1;rounded=0;entryX=0;entryY=0.5;entryDx=0;entryDy=0;" parent="1" target="MC2AqYIewqk88VeBDW5k-25" edge="1">
          <mxGeometry width="50" height="50" relative="1" as="geometry">
            <mxPoint x="560" y="250" as="sourcePoint" />
            <mxPoint x="640" y="300" as="targetPoint" />
          </mxGeometry>
        </mxCell>
        <mxCell id="MC2AqYIewqk88VeBDW5k-63" value="" style="endArrow=none;html=1;rounded=0;" parent="1" edge="1">
          <mxGeometry width="50" height="50" relative="1" as="geometry">
            <mxPoint x="560" y="300" as="sourcePoint" />
            <mxPoint x="570" y="300" as="targetPoint" />
          </mxGeometry>
        </mxCell>
        <mxCell id="MC2AqYIewqk88VeBDW5k-64" value="" style="endArrow=none;html=1;rounded=0;entryX=0;entryY=0.5;entryDx=0;entryDy=0;" parent="1" target="MC2AqYIewqk88VeBDW5k-29" edge="1">
          <mxGeometry width="50" height="50" relative="1" as="geometry">
            <mxPoint x="560" y="350" as="sourcePoint" />
            <mxPoint x="640" y="300" as="targetPoint" />
          </mxGeometry>
        </mxCell>
        <mxCell id="MC2AqYIewqk88VeBDW5k-65" value="" style="endArrow=none;html=1;rounded=0;entryX=0;entryY=0.5;entryDx=0;entryDy=0;" parent="1" target="MC2AqYIewqk88VeBDW5k-32" edge="1">
          <mxGeometry width="50" height="50" relative="1" as="geometry">
            <mxPoint x="560" y="400" as="sourcePoint" />
            <mxPoint x="640" y="300" as="targetPoint" />
          </mxGeometry>
        </mxCell>
        <mxCell id="J5TqSiO1KMNlUzjfTJ3k-1" value="Küchenquest" style="rounded=0;whiteSpace=wrap;html=1;fillColor=#ffff88;strokeColor=#36393d;" vertex="1" parent="1">
          <mxGeometry x="1136" y="40" width="120" height="60" as="geometry" />
        </mxCell>
        <mxCell id="J5TqSiO1KMNlUzjfTJ3k-2" value="Jonas" style="rounded=0;whiteSpace=wrap;html=1;fillColor=#ffff88;strokeColor=#36393d;" vertex="1" parent="1">
          <mxGeometry x="900" y="160" width="120" height="60" as="geometry" />
        </mxCell>
        <mxCell id="J5TqSiO1KMNlUzjfTJ3k-3" value="Florian" style="rounded=0;whiteSpace=wrap;html=1;fillColor=#ffff88;strokeColor=#36393d;" vertex="1" parent="1">
          <mxGeometry x="1060" y="160" width="120" height="60" as="geometry" />
        </mxCell>
        <mxCell id="J5TqSiO1KMNlUzjfTJ3k-4" value="Cornelius" style="rounded=0;whiteSpace=wrap;html=1;fillColor=#ffff88;strokeColor=#36393d;" vertex="1" parent="1">
          <mxGeometry x="1220" y="160" width="120" height="60" as="geometry" />
        </mxCell>
        <mxCell id="J5TqSiO1KMNlUzjfTJ3k-5" value="Niklas" style="rounded=0;whiteSpace=wrap;html=1;fillColor=#ffff88;strokeColor=#36393d;" vertex="1" parent="1">
          <mxGeometry x="1380" y="160" width="120" height="60" as="geometry" />
        </mxCell>
        <mxCell id="J5TqSiO1KMNlUzjfTJ3k-6" value="" style="endArrow=classic;html=1;rounded=0;exitX=0;exitY=0.5;exitDx=0;exitDy=0;entryX=0.5;entryY=0;entryDx=0;entryDy=0;" edge="1" parent="1" source="J5TqSiO1KMNlUzjfTJ3k-1" target="J5TqSiO1KMNlUzjfTJ3k-2">
          <mxGeometry width="50" height="50" relative="1" as="geometry">
            <mxPoint x="1176" y="260" as="sourcePoint" />
            <mxPoint x="1226" y="210" as="targetPoint" />
            <Array as="points">
              <mxPoint x="960" y="70" />
            </Array>
          </mxGeometry>
        </mxCell>
        <mxCell id="J5TqSiO1KMNlUzjfTJ3k-7" value="" style="endArrow=classic;html=1;rounded=0;exitX=0.25;exitY=1;exitDx=0;exitDy=0;entryX=0.5;entryY=0;entryDx=0;entryDy=0;" edge="1" parent="1" source="J5TqSiO1KMNlUzjfTJ3k-1" target="J5TqSiO1KMNlUzjfTJ3k-3">
          <mxGeometry width="50" height="50" relative="1" as="geometry">
            <mxPoint x="1176" y="260" as="sourcePoint" />
            <mxPoint x="1226" y="210" as="targetPoint" />
          </mxGeometry>
        </mxCell>
        <mxCell id="J5TqSiO1KMNlUzjfTJ3k-8" value="" style="endArrow=classic;html=1;rounded=0;exitX=0.678;exitY=0.972;exitDx=0;exitDy=0;exitPerimeter=0;entryX=0.5;entryY=0;entryDx=0;entryDy=0;" edge="1" parent="1" source="J5TqSiO1KMNlUzjfTJ3k-1" target="J5TqSiO1KMNlUzjfTJ3k-4">
          <mxGeometry width="50" height="50" relative="1" as="geometry">
            <mxPoint x="1176" y="260" as="sourcePoint" />
            <mxPoint x="1226" y="210" as="targetPoint" />
          </mxGeometry>
        </mxCell>
        <mxCell id="J5TqSiO1KMNlUzjfTJ3k-9" value="" style="endArrow=classic;html=1;rounded=0;exitX=1;exitY=0.5;exitDx=0;exitDy=0;entryX=0.5;entryY=0;entryDx=0;entryDy=0;" edge="1" parent="1" source="J5TqSiO1KMNlUzjfTJ3k-1" target="J5TqSiO1KMNlUzjfTJ3k-5">
          <mxGeometry width="50" height="50" relative="1" as="geometry">
            <mxPoint x="1176" y="260" as="sourcePoint" />
            <mxPoint x="1226" y="210" as="targetPoint" />
            <Array as="points">
              <mxPoint x="1440" y="70" />
            </Array>
          </mxGeometry>
        </mxCell>
        <mxCell id="J5TqSiO1KMNlUzjfTJ3k-10" value="Datenmodelle&lt;div&gt;konzipieren (4h)&lt;/div&gt;" style="rounded=0;whiteSpace=wrap;html=1;fillColor=#fad9d5;strokeColor=#ae4132;" vertex="1" parent="1">
          <mxGeometry x="910" y="240" width="620" height="40" as="geometry" />
        </mxCell>
        <mxCell id="J5TqSiO1KMNlUzjfTJ3k-11" value="Datenmodell&lt;div&gt;entwickeln (6h)&lt;/div&gt;" style="rounded=0;whiteSpace=wrap;html=1;fillColor=#fad9d5;strokeColor=#ae4132;" vertex="1" parent="1">
          <mxGeometry x="910" y="290" width="140" height="40" as="geometry" />
        </mxCell>
        <mxCell id="J5TqSiO1KMNlUzjfTJ3k-12" value="Installationsskript&lt;div&gt;erstellen (2h)&lt;/div&gt;" style="rounded=0;whiteSpace=wrap;html=1;fillColor=#fad9d5;strokeColor=#ae4132;" vertex="1" parent="1">
          <mxGeometry x="910" y="340" width="140" height="40" as="geometry" />
        </mxCell>
        <mxCell id="J5TqSiO1KMNlUzjfTJ3k-13" value="Datenbankanbindung&lt;div&gt;der API testen (10h)&lt;/div&gt;" style="rounded=0;whiteSpace=wrap;html=1;fillColor=#b1ddf0;strokeColor=#10739e;" vertex="1" parent="1">
          <mxGeometry x="910" y="390" width="140" height="40" as="geometry" />
        </mxCell>
        <mxCell id="J5TqSiO1KMNlUzjfTJ3k-14" value="API testen (4h)" style="rounded=0;whiteSpace=wrap;html=1;fillColor=#b1ddf0;strokeColor=#10739e;" vertex="1" parent="1">
          <mxGeometry x="910" y="440" width="140" height="40" as="geometry" />
        </mxCell>
        <mxCell id="J5TqSiO1KMNlUzjfTJ3k-15" value="OpenFoodFacts API testen (4h)" style="rounded=0;whiteSpace=wrap;html=1;fillColor=#b1ddf0;strokeColor=#10739e;" vertex="1" parent="1">
          <mxGeometry x="910" y="490" width="140" height="40" as="geometry" />
        </mxCell>
        <mxCell id="J5TqSiO1KMNlUzjfTJ3k-17" value="Dark-/Lightmode (4h)" style="rounded=0;whiteSpace=wrap;html=1;fillColor=#ffe6cc;strokeColor=#d79b00;" vertex="1" parent="1">
          <mxGeometry x="1070" y="390" width="140" height="40" as="geometry" />
        </mxCell>
        <mxCell id="J5TqSiO1KMNlUzjfTJ3k-18" value="Rezepte abfragen/anzeigen (6h)" style="rounded=0;whiteSpace=wrap;html=1;fillColor=#ffe6cc;strokeColor=#d79b00;" vertex="1" parent="1">
          <mxGeometry x="1230" y="540" width="140" height="40" as="geometry" />
        </mxCell>
        <mxCell id="J5TqSiO1KMNlUzjfTJ3k-19" value="Filterlogik (8h)" style="rounded=0;whiteSpace=wrap;html=1;fillColor=#ffe6cc;strokeColor=#d79b00;" vertex="1" parent="1">
          <mxGeometry x="1230" y="590" width="300" height="40" as="geometry" />
        </mxCell>
        <mxCell id="J5TqSiO1KMNlUzjfTJ3k-20" value="Rezept (öffentlich)&lt;div&gt;&amp;nbsp;erstellen/speichern (6h)&lt;/div&gt;" style="rounded=0;whiteSpace=wrap;html=1;fillColor=#ffe6cc;strokeColor=#d79b00;" vertex="1" parent="1">
          <mxGeometry x="1390" y="440" width="140" height="40" as="geometry" />
        </mxCell>
        <mxCell id="J5TqSiO1KMNlUzjfTJ3k-21" value="Barcode Scanner (10h)" style="rounded=0;whiteSpace=wrap;html=1;fillColor=#ffe6cc;strokeColor=#d79b00;" vertex="1" parent="1">
          <mxGeometry x="910" y="640" width="620" height="40" as="geometry" />
        </mxCell>
        <mxCell id="J5TqSiO1KMNlUzjfTJ3k-22" value="Rezept (lokal)&lt;div&gt;&amp;nbsp;erstellen/speichern (6h)&lt;/div&gt;" style="rounded=0;whiteSpace=wrap;html=1;fillColor=#ffe6cc;strokeColor=#d79b00;" vertex="1" parent="1">
          <mxGeometry x="1230" y="390" width="140" height="40" as="geometry" />
        </mxCell>
        <mxCell id="J5TqSiO1KMNlUzjfTJ3k-23" value="Login UI (6h)" style="rounded=0;whiteSpace=wrap;html=1;fillColor=#e1d5e7;strokeColor=#9673a6;" vertex="1" parent="1">
          <mxGeometry x="1390" y="340" width="140" height="40" as="geometry" />
        </mxCell>
        <mxCell id="J5TqSiO1KMNlUzjfTJ3k-24" value="Startseite (6h)" style="rounded=0;whiteSpace=wrap;html=1;fillColor=#e1d5e7;strokeColor=#9673a6;" vertex="1" parent="1">
          <mxGeometry x="1070" y="340" width="140" height="40" as="geometry" />
        </mxCell>
        <mxCell id="J5TqSiO1KMNlUzjfTJ3k-25" value="eigene Rezepte (6h)" style="rounded=0;whiteSpace=wrap;html=1;fillColor=#e1d5e7;strokeColor=#9673a6;" vertex="1" parent="1">
          <mxGeometry x="1230" y="340" width="140" height="40" as="geometry" />
        </mxCell>
        <mxCell id="J5TqSiO1KMNlUzjfTJ3k-26" value="Öffentliche Rezepte (6h)" style="rounded=0;whiteSpace=wrap;html=1;fillColor=#e1d5e7;strokeColor=#9673a6;" vertex="1" parent="1">
          <mxGeometry x="1390" y="390" width="140" height="40" as="geometry" />
        </mxCell>
        <mxCell id="J5TqSiO1KMNlUzjfTJ3k-27" value="Achievments&lt;div&gt;Fortschritt&amp;nbsp;&lt;span style=&quot;background-color: initial;&quot;&gt;(6h)&lt;/span&gt;&lt;/div&gt;" style="rounded=0;whiteSpace=wrap;html=1;fillColor=#e1d5e7;strokeColor=#9673a6;" vertex="1" parent="1">
          <mxGeometry x="1230" y="490" width="300" height="40" as="geometry" />
        </mxCell>
        <mxCell id="J5TqSiO1KMNlUzjfTJ3k-28" value="Navigation (6h)" style="rounded=0;whiteSpace=wrap;html=1;fillColor=#e1d5e7;strokeColor=#9673a6;" vertex="1" parent="1">
          <mxGeometry x="1070" y="540" width="140" height="40" as="geometry" />
        </mxCell>
        <mxCell id="J5TqSiO1KMNlUzjfTJ3k-29" value="Barcode Scanner UI (6h)" style="rounded=0;whiteSpace=wrap;html=1;fillColor=#e1d5e7;strokeColor=#9673a6;" vertex="1" parent="1">
          <mxGeometry x="1070" y="590" width="140" height="40" as="geometry" />
        </mxCell>
        <mxCell id="J5TqSiO1KMNlUzjfTJ3k-33" value="Dokumentation / Wirtschaft (10h)" style="rounded=0;whiteSpace=wrap;html=1;fillColor=#f5f5f5;fontColor=#333333;strokeColor=#666666;textDirection=vertical-rl;" vertex="1" parent="1">
          <mxGeometry x="1546" y="240" width="60" height="390" as="geometry" />
        </mxCell>
        <mxCell id="J5TqSiO1KMNlUzjfTJ3k-60" value="Testdoku&lt;div&gt;(2h)&lt;/div&gt;" style="rounded=0;whiteSpace=wrap;html=1;fillColor=#f5f5f5;fontColor=#333333;strokeColor=#666666;" vertex="1" parent="1">
          <mxGeometry x="1546" y="690" width="60" height="40" as="geometry" />
        </mxCell>
        <mxCell id="J5TqSiO1KMNlUzjfTJ3k-61" value="Allgemeiner Test (8h)" style="rounded=0;whiteSpace=wrap;html=1;fillColor=#d5e8d4;strokeColor=#82b366;" vertex="1" parent="1">
          <mxGeometry x="910" y="690" width="620" height="40" as="geometry" />
        </mxCell>
        <mxCell id="J5TqSiO1KMNlUzjfTJ3k-62" value="Zeit" style="endArrow=classic;html=1;rounded=0;fontSize=30;textDirection=vertical-rl;" edge="1" parent="1">
          <mxGeometry width="50" height="50" relative="1" as="geometry">
            <mxPoint x="876" y="240" as="sourcePoint" />
            <mxPoint x="876" y="730" as="targetPoint" />
            <mxPoint as="offset" />
          </mxGeometry>
        </mxCell>
        <mxCell id="J5TqSiO1KMNlUzjfTJ3k-63" value="Bug Fixing (8h)" style="rounded=0;whiteSpace=wrap;html=1;fillColor=#d5e8d4;strokeColor=#82b366;" vertex="1" parent="1">
          <mxGeometry x="910" y="740" width="620" height="40" as="geometry" />
        </mxCell>
        <mxCell id="J5TqSiO1KMNlUzjfTJ3k-77" value="Mockups (10h)" style="rounded=0;whiteSpace=wrap;html=1;fillColor=#e1d5e7;strokeColor=#9673a6;" vertex="1" parent="1">
          <mxGeometry x="1070" y="290" width="460" height="40" as="geometry" />
        </mxCell>
        <mxCell id="J5TqSiO1KMNlUzjfTJ3k-79" value="" style="rounded=0;whiteSpace=wrap;html=1;" vertex="1" parent="1">
          <mxGeometry x="1720" y="240" width="120" height="40" as="geometry" />
        </mxCell>
        <mxCell id="J5TqSiO1KMNlUzjfTJ3k-80" value="" style="endArrow=none;html=1;rounded=0;entryX=0.333;entryY=-0.01;entryDx=0;entryDy=0;entryPerimeter=0;" edge="1" parent="1" target="J5TqSiO1KMNlUzjfTJ3k-79">
          <mxGeometry width="50" height="50" relative="1" as="geometry">
            <mxPoint x="1760" y="280" as="sourcePoint" />
            <mxPoint x="1820" y="260" as="targetPoint" />
          </mxGeometry>
        </mxCell>
        <mxCell id="J5TqSiO1KMNlUzjfTJ3k-81" value="" style="endArrow=none;html=1;rounded=0;exitX=0;exitY=0.5;exitDx=0;exitDy=0;entryX=1;entryY=0.5;entryDx=0;entryDy=0;" edge="1" parent="1" source="J5TqSiO1KMNlUzjfTJ3k-79" target="J5TqSiO1KMNlUzjfTJ3k-79">
          <mxGeometry width="50" height="50" relative="1" as="geometry">
            <mxPoint x="1770" y="310" as="sourcePoint" />
            <mxPoint x="1840" y="240" as="targetPoint" />
          </mxGeometry>
        </mxCell>
        <mxCell id="J5TqSiO1KMNlUzjfTJ3k-83" value="" style="endArrow=none;html=1;rounded=0;" edge="1" parent="1">
          <mxGeometry width="50" height="50" relative="1" as="geometry">
            <mxPoint x="1800" y="260" as="sourcePoint" />
            <mxPoint x="1800" y="280" as="targetPoint" />
          </mxGeometry>
        </mxCell>
        <mxCell id="J5TqSiO1KMNlUzjfTJ3k-85" value="" style="rounded=0;whiteSpace=wrap;html=1;" vertex="1" parent="1">
          <mxGeometry x="1880" y="320.4" width="120" height="40" as="geometry" />
        </mxCell>
        <mxCell id="J5TqSiO1KMNlUzjfTJ3k-86" value="" style="endArrow=none;html=1;rounded=0;entryX=0.333;entryY=-0.01;entryDx=0;entryDy=0;entryPerimeter=0;" edge="1" parent="1" target="J5TqSiO1KMNlUzjfTJ3k-85">
          <mxGeometry width="50" height="50" relative="1" as="geometry">
            <mxPoint x="1920" y="360.4" as="sourcePoint" />
            <mxPoint x="1980" y="340.4" as="targetPoint" />
          </mxGeometry>
        </mxCell>
        <mxCell id="J5TqSiO1KMNlUzjfTJ3k-87" value="" style="endArrow=none;html=1;rounded=0;exitX=0;exitY=0.5;exitDx=0;exitDy=0;entryX=1;entryY=0.5;entryDx=0;entryDy=0;" edge="1" parent="1" source="J5TqSiO1KMNlUzjfTJ3k-85" target="J5TqSiO1KMNlUzjfTJ3k-85">
          <mxGeometry width="50" height="50" relative="1" as="geometry">
            <mxPoint x="1930" y="390.4" as="sourcePoint" />
            <mxPoint x="2000" y="320.4" as="targetPoint" />
          </mxGeometry>
        </mxCell>
        <mxCell id="J5TqSiO1KMNlUzjfTJ3k-88" value="" style="endArrow=none;html=1;rounded=0;" edge="1" parent="1">
          <mxGeometry width="50" height="50" relative="1" as="geometry">
            <mxPoint x="1960" y="340.4" as="sourcePoint" />
            <mxPoint x="1960" y="360.4" as="targetPoint" />
          </mxGeometry>
        </mxCell>
        <mxCell id="J5TqSiO1KMNlUzjfTJ3k-89" value="" style="rounded=0;whiteSpace=wrap;html=1;" vertex="1" parent="1">
          <mxGeometry x="1880" y="160.4" width="120" height="40" as="geometry" />
        </mxCell>
        <mxCell id="J5TqSiO1KMNlUzjfTJ3k-90" value="" style="endArrow=none;html=1;rounded=0;entryX=0.333;entryY=-0.01;entryDx=0;entryDy=0;entryPerimeter=0;" edge="1" parent="1" target="J5TqSiO1KMNlUzjfTJ3k-89">
          <mxGeometry width="50" height="50" relative="1" as="geometry">
            <mxPoint x="1920" y="200.4" as="sourcePoint" />
            <mxPoint x="1980" y="180.4" as="targetPoint" />
          </mxGeometry>
        </mxCell>
        <mxCell id="J5TqSiO1KMNlUzjfTJ3k-91" value="" style="endArrow=none;html=1;rounded=0;exitX=0;exitY=0.5;exitDx=0;exitDy=0;entryX=1;entryY=0.5;entryDx=0;entryDy=0;" edge="1" parent="1" source="J5TqSiO1KMNlUzjfTJ3k-89" target="J5TqSiO1KMNlUzjfTJ3k-89">
          <mxGeometry width="50" height="50" relative="1" as="geometry">
            <mxPoint x="1930" y="230.4" as="sourcePoint" />
            <mxPoint x="2000" y="160.4" as="targetPoint" />
          </mxGeometry>
        </mxCell>
        <mxCell id="J5TqSiO1KMNlUzjfTJ3k-92" value="" style="endArrow=none;html=1;rounded=0;" edge="1" parent="1">
          <mxGeometry width="50" height="50" relative="1" as="geometry">
            <mxPoint x="1960" y="180.4" as="sourcePoint" />
            <mxPoint x="1960" y="200.4" as="targetPoint" />
          </mxGeometry>
        </mxCell>
        <mxCell id="J5TqSiO1KMNlUzjfTJ3k-93" value="" style="endArrow=none;html=1;rounded=0;" edge="1" parent="1">
          <mxGeometry width="50" height="50" relative="1" as="geometry">
            <mxPoint x="1840" y="260" as="sourcePoint" />
            <mxPoint x="1880" y="180" as="targetPoint" />
          </mxGeometry>
        </mxCell>
        <mxCell id="J5TqSiO1KMNlUzjfTJ3k-94" value="" style="endArrow=none;html=1;rounded=0;exitX=1;exitY=0.5;exitDx=0;exitDy=0;" edge="1" parent="1" source="J5TqSiO1KMNlUzjfTJ3k-79">
          <mxGeometry width="50" height="50" relative="1" as="geometry">
            <mxPoint x="1820" y="260" as="sourcePoint" />
            <mxPoint x="1880" y="340" as="targetPoint" />
          </mxGeometry>
        </mxCell>
        <mxCell id="J5TqSiO1KMNlUzjfTJ3k-95" value="1" style="text;html=1;align=center;verticalAlign=middle;resizable=0;points=[];autosize=1;strokeColor=none;fillColor=none;" vertex="1" parent="1">
          <mxGeometry x="1720" y="235" width="30" height="30" as="geometry" />
        </mxCell>
        <mxCell id="J5TqSiO1KMNlUzjfTJ3k-96" value="2" style="text;html=1;align=center;verticalAlign=middle;resizable=0;points=[];autosize=1;strokeColor=none;fillColor=none;" vertex="1" parent="1">
          <mxGeometry x="1880" y="160" width="30" height="30" as="geometry" />
        </mxCell>
        <mxCell id="J5TqSiO1KMNlUzjfTJ3k-97" value="3" style="text;html=1;align=center;verticalAlign=middle;resizable=0;points=[];autosize=1;strokeColor=none;fillColor=none;" vertex="1" parent="1">
          <mxGeometry x="1880" y="320" width="30" height="30" as="geometry" />
        </mxCell>
        <mxCell id="J5TqSiO1KMNlUzjfTJ3k-98" value="4h" style="text;html=1;align=center;verticalAlign=middle;resizable=0;points=[];autosize=1;strokeColor=none;fillColor=none;" vertex="1" parent="1">
          <mxGeometry x="1715" y="260" width="40" height="30" as="geometry" />
        </mxCell>
        <mxCell id="J5TqSiO1KMNlUzjfTJ3k-99" value="6h" style="text;html=1;align=center;verticalAlign=middle;resizable=0;points=[];autosize=1;strokeColor=none;fillColor=none;" vertex="1" parent="1">
          <mxGeometry x="1880" y="175" width="40" height="30" as="geometry" />
        </mxCell>
        <mxCell id="J5TqSiO1KMNlUzjfTJ3k-100" value="10h" style="text;html=1;align=center;verticalAlign=middle;resizable=0;points=[];autosize=1;strokeColor=none;fillColor=none;" vertex="1" parent="1">
          <mxGeometry x="1875" y="335" width="40" height="30" as="geometry" />
        </mxCell>
        <mxCell id="J5TqSiO1KMNlUzjfTJ3k-105" value="" style="rounded=0;whiteSpace=wrap;html=1;" vertex="1" parent="1">
          <mxGeometry x="2040" y="160.79999999999995" width="120" height="40" as="geometry" />
        </mxCell>
        <mxCell id="J5TqSiO1KMNlUzjfTJ3k-106" value="" style="endArrow=none;html=1;rounded=0;entryX=0.333;entryY=-0.01;entryDx=0;entryDy=0;entryPerimeter=0;" edge="1" parent="1" target="J5TqSiO1KMNlUzjfTJ3k-105">
          <mxGeometry width="50" height="50" relative="1" as="geometry">
            <mxPoint x="2080" y="200.79999999999995" as="sourcePoint" />
            <mxPoint x="2140" y="180.79999999999995" as="targetPoint" />
          </mxGeometry>
        </mxCell>
        <mxCell id="J5TqSiO1KMNlUzjfTJ3k-107" value="" style="endArrow=none;html=1;rounded=0;exitX=0;exitY=0.5;exitDx=0;exitDy=0;entryX=1;entryY=0.5;entryDx=0;entryDy=0;" edge="1" parent="1" source="J5TqSiO1KMNlUzjfTJ3k-105" target="J5TqSiO1KMNlUzjfTJ3k-105">
          <mxGeometry width="50" height="50" relative="1" as="geometry">
            <mxPoint x="2090" y="230.79999999999995" as="sourcePoint" />
            <mxPoint x="2160" y="160.79999999999995" as="targetPoint" />
          </mxGeometry>
        </mxCell>
        <mxCell id="J5TqSiO1KMNlUzjfTJ3k-108" value="" style="endArrow=none;html=1;rounded=0;" edge="1" parent="1">
          <mxGeometry width="50" height="50" relative="1" as="geometry">
            <mxPoint x="2120" y="180.79999999999995" as="sourcePoint" />
            <mxPoint x="2120" y="200.79999999999995" as="targetPoint" />
          </mxGeometry>
        </mxCell>
        <mxCell id="J5TqSiO1KMNlUzjfTJ3k-109" value="" style="rounded=0;whiteSpace=wrap;html=1;" vertex="1" parent="1">
          <mxGeometry x="2200" y="161" width="120" height="40" as="geometry" />
        </mxCell>
        <mxCell id="J5TqSiO1KMNlUzjfTJ3k-110" value="" style="endArrow=none;html=1;rounded=0;entryX=0.333;entryY=-0.01;entryDx=0;entryDy=0;entryPerimeter=0;" edge="1" parent="1" target="J5TqSiO1KMNlUzjfTJ3k-109">
          <mxGeometry width="50" height="50" relative="1" as="geometry">
            <mxPoint x="2240" y="201" as="sourcePoint" />
            <mxPoint x="2300" y="181" as="targetPoint" />
          </mxGeometry>
        </mxCell>
        <mxCell id="J5TqSiO1KMNlUzjfTJ3k-111" value="" style="endArrow=none;html=1;rounded=0;exitX=0;exitY=0.5;exitDx=0;exitDy=0;entryX=1;entryY=0.5;entryDx=0;entryDy=0;" edge="1" parent="1" source="J5TqSiO1KMNlUzjfTJ3k-109" target="J5TqSiO1KMNlUzjfTJ3k-109">
          <mxGeometry width="50" height="50" relative="1" as="geometry">
            <mxPoint x="2250" y="231" as="sourcePoint" />
            <mxPoint x="2320" y="161" as="targetPoint" />
          </mxGeometry>
        </mxCell>
        <mxCell id="J5TqSiO1KMNlUzjfTJ3k-112" value="" style="endArrow=none;html=1;rounded=0;" edge="1" parent="1">
          <mxGeometry width="50" height="50" relative="1" as="geometry">
            <mxPoint x="2280" y="181" as="sourcePoint" />
            <mxPoint x="2280" y="201" as="targetPoint" />
          </mxGeometry>
        </mxCell>
        <mxCell id="J5TqSiO1KMNlUzjfTJ3k-113" value="" style="rounded=0;whiteSpace=wrap;html=1;" vertex="1" parent="1">
          <mxGeometry x="2361" y="160.39999999999998" width="120" height="40" as="geometry" />
        </mxCell>
        <mxCell id="J5TqSiO1KMNlUzjfTJ3k-114" value="" style="endArrow=none;html=1;rounded=0;entryX=0.333;entryY=-0.01;entryDx=0;entryDy=0;entryPerimeter=0;" edge="1" parent="1" target="J5TqSiO1KMNlUzjfTJ3k-113">
          <mxGeometry width="50" height="50" relative="1" as="geometry">
            <mxPoint x="2401" y="200.39999999999998" as="sourcePoint" />
            <mxPoint x="2461" y="180.39999999999998" as="targetPoint" />
          </mxGeometry>
        </mxCell>
        <mxCell id="J5TqSiO1KMNlUzjfTJ3k-115" value="" style="endArrow=none;html=1;rounded=0;exitX=0;exitY=0.5;exitDx=0;exitDy=0;entryX=1;entryY=0.5;entryDx=0;entryDy=0;" edge="1" parent="1" source="J5TqSiO1KMNlUzjfTJ3k-113" target="J5TqSiO1KMNlUzjfTJ3k-113">
          <mxGeometry width="50" height="50" relative="1" as="geometry">
            <mxPoint x="2411" y="230.39999999999998" as="sourcePoint" />
            <mxPoint x="2481" y="160.39999999999998" as="targetPoint" />
          </mxGeometry>
        </mxCell>
        <mxCell id="J5TqSiO1KMNlUzjfTJ3k-116" value="" style="endArrow=none;html=1;rounded=0;" edge="1" parent="1">
          <mxGeometry width="50" height="50" relative="1" as="geometry">
            <mxPoint x="2441" y="180.39999999999998" as="sourcePoint" />
            <mxPoint x="2441" y="200.39999999999998" as="targetPoint" />
          </mxGeometry>
        </mxCell>
        <mxCell id="J5TqSiO1KMNlUzjfTJ3k-117" value="" style="rounded=0;whiteSpace=wrap;html=1;" vertex="1" parent="1">
          <mxGeometry x="2520" y="161.2" width="120" height="40" as="geometry" />
        </mxCell>
        <mxCell id="J5TqSiO1KMNlUzjfTJ3k-118" value="" style="endArrow=none;html=1;rounded=0;entryX=0.333;entryY=-0.01;entryDx=0;entryDy=0;entryPerimeter=0;" edge="1" parent="1" target="J5TqSiO1KMNlUzjfTJ3k-117">
          <mxGeometry width="50" height="50" relative="1" as="geometry">
            <mxPoint x="2560" y="201.2" as="sourcePoint" />
            <mxPoint x="2620" y="181.2" as="targetPoint" />
          </mxGeometry>
        </mxCell>
        <mxCell id="J5TqSiO1KMNlUzjfTJ3k-119" value="" style="endArrow=none;html=1;rounded=0;exitX=0;exitY=0.5;exitDx=0;exitDy=0;entryX=1;entryY=0.5;entryDx=0;entryDy=0;" edge="1" parent="1" source="J5TqSiO1KMNlUzjfTJ3k-117" target="J5TqSiO1KMNlUzjfTJ3k-117">
          <mxGeometry width="50" height="50" relative="1" as="geometry">
            <mxPoint x="2570" y="231.2" as="sourcePoint" />
            <mxPoint x="2640" y="161.2" as="targetPoint" />
          </mxGeometry>
        </mxCell>
        <mxCell id="J5TqSiO1KMNlUzjfTJ3k-120" value="" style="endArrow=none;html=1;rounded=0;" edge="1" parent="1">
          <mxGeometry width="50" height="50" relative="1" as="geometry">
            <mxPoint x="2600" y="181.2" as="sourcePoint" />
            <mxPoint x="2600" y="201.2" as="targetPoint" />
          </mxGeometry>
        </mxCell>
        <mxCell id="J5TqSiO1KMNlUzjfTJ3k-121" value="2h" style="text;html=1;align=center;verticalAlign=middle;resizable=0;points=[];autosize=1;strokeColor=none;fillColor=none;" vertex="1" parent="1">
          <mxGeometry x="2040" y="175" width="40" height="30" as="geometry" />
        </mxCell>
        <mxCell id="J5TqSiO1KMNlUzjfTJ3k-122" value="10h" style="text;html=1;align=center;verticalAlign=middle;resizable=0;points=[];autosize=1;strokeColor=none;fillColor=none;" vertex="1" parent="1">
          <mxGeometry x="2190" y="180" width="40" height="30" as="geometry" />
        </mxCell>
        <mxCell id="J5TqSiO1KMNlUzjfTJ3k-123" value="4h" style="text;html=1;align=center;verticalAlign=middle;resizable=0;points=[];autosize=1;strokeColor=none;fillColor=none;" vertex="1" parent="1">
          <mxGeometry x="2361" y="180" width="40" height="30" as="geometry" />
        </mxCell>
        <mxCell id="J5TqSiO1KMNlUzjfTJ3k-124" value="4h" style="text;html=1;align=center;verticalAlign=middle;resizable=0;points=[];autosize=1;strokeColor=none;fillColor=none;" vertex="1" parent="1">
          <mxGeometry x="2520" y="180" width="40" height="30" as="geometry" />
        </mxCell>
        <mxCell id="J5TqSiO1KMNlUzjfTJ3k-125" value="" style="rounded=0;whiteSpace=wrap;html=1;" vertex="1" parent="1">
          <mxGeometry x="2040" y="235.39999999999998" width="120" height="40" as="geometry" />
        </mxCell>
        <mxCell id="J5TqSiO1KMNlUzjfTJ3k-126" value="" style="endArrow=none;html=1;rounded=0;entryX=0.333;entryY=-0.01;entryDx=0;entryDy=0;entryPerimeter=0;" edge="1" parent="1" target="J5TqSiO1KMNlUzjfTJ3k-125">
          <mxGeometry width="50" height="50" relative="1" as="geometry">
            <mxPoint x="2080" y="275.4" as="sourcePoint" />
            <mxPoint x="2140" y="255.39999999999998" as="targetPoint" />
          </mxGeometry>
        </mxCell>
        <mxCell id="J5TqSiO1KMNlUzjfTJ3k-127" value="" style="endArrow=none;html=1;rounded=0;exitX=0;exitY=0.5;exitDx=0;exitDy=0;entryX=1;entryY=0.5;entryDx=0;entryDy=0;" edge="1" parent="1" source="J5TqSiO1KMNlUzjfTJ3k-125" target="J5TqSiO1KMNlUzjfTJ3k-125">
          <mxGeometry width="50" height="50" relative="1" as="geometry">
            <mxPoint x="2090" y="305.4" as="sourcePoint" />
            <mxPoint x="2160" y="235.39999999999998" as="targetPoint" />
          </mxGeometry>
        </mxCell>
        <mxCell id="J5TqSiO1KMNlUzjfTJ3k-128" value="" style="endArrow=none;html=1;rounded=0;" edge="1" parent="1">
          <mxGeometry width="50" height="50" relative="1" as="geometry">
            <mxPoint x="2120" y="255.39999999999998" as="sourcePoint" />
            <mxPoint x="2120" y="275.4" as="targetPoint" />
          </mxGeometry>
        </mxCell>
        <mxCell id="J5TqSiO1KMNlUzjfTJ3k-129" value="" style="rounded=0;whiteSpace=wrap;html=1;" vertex="1" parent="1">
          <mxGeometry x="2040" y="320.79999999999995" width="120" height="40" as="geometry" />
        </mxCell>
        <mxCell id="J5TqSiO1KMNlUzjfTJ3k-130" value="" style="endArrow=none;html=1;rounded=0;entryX=0.333;entryY=-0.01;entryDx=0;entryDy=0;entryPerimeter=0;" edge="1" parent="1" target="J5TqSiO1KMNlUzjfTJ3k-129">
          <mxGeometry width="50" height="50" relative="1" as="geometry">
            <mxPoint x="2080" y="360.79999999999995" as="sourcePoint" />
            <mxPoint x="2140" y="340.79999999999995" as="targetPoint" />
          </mxGeometry>
        </mxCell>
        <mxCell id="J5TqSiO1KMNlUzjfTJ3k-131" value="" style="endArrow=none;html=1;rounded=0;exitX=0;exitY=0.5;exitDx=0;exitDy=0;entryX=1;entryY=0.5;entryDx=0;entryDy=0;" edge="1" parent="1" source="J5TqSiO1KMNlUzjfTJ3k-129" target="J5TqSiO1KMNlUzjfTJ3k-129">
          <mxGeometry width="50" height="50" relative="1" as="geometry">
            <mxPoint x="2090" y="390.79999999999995" as="sourcePoint" />
            <mxPoint x="2160" y="320.79999999999995" as="targetPoint" />
          </mxGeometry>
        </mxCell>
        <mxCell id="J5TqSiO1KMNlUzjfTJ3k-132" value="" style="endArrow=none;html=1;rounded=0;" edge="1" parent="1">
          <mxGeometry width="50" height="50" relative="1" as="geometry">
            <mxPoint x="2120" y="340.79999999999995" as="sourcePoint" />
            <mxPoint x="2120" y="360.79999999999995" as="targetPoint" />
          </mxGeometry>
        </mxCell>
        <mxCell id="J5TqSiO1KMNlUzjfTJ3k-133" value="" style="rounded=0;whiteSpace=wrap;html=1;" vertex="1" parent="1">
          <mxGeometry x="2040" y="400" width="120" height="40" as="geometry" />
        </mxCell>
        <mxCell id="J5TqSiO1KMNlUzjfTJ3k-134" value="" style="endArrow=none;html=1;rounded=0;entryX=0.333;entryY=-0.01;entryDx=0;entryDy=0;entryPerimeter=0;" edge="1" parent="1" target="J5TqSiO1KMNlUzjfTJ3k-133">
          <mxGeometry width="50" height="50" relative="1" as="geometry">
            <mxPoint x="2080" y="440" as="sourcePoint" />
            <mxPoint x="2140" y="420" as="targetPoint" />
          </mxGeometry>
        </mxCell>
        <mxCell id="J5TqSiO1KMNlUzjfTJ3k-135" value="" style="endArrow=none;html=1;rounded=0;exitX=0;exitY=0.5;exitDx=0;exitDy=0;entryX=1;entryY=0.5;entryDx=0;entryDy=0;" edge="1" parent="1" source="J5TqSiO1KMNlUzjfTJ3k-133" target="J5TqSiO1KMNlUzjfTJ3k-133">
          <mxGeometry width="50" height="50" relative="1" as="geometry">
            <mxPoint x="2090" y="470" as="sourcePoint" />
            <mxPoint x="2160" y="400" as="targetPoint" />
          </mxGeometry>
        </mxCell>
        <mxCell id="J5TqSiO1KMNlUzjfTJ3k-136" value="" style="endArrow=none;html=1;rounded=0;" edge="1" parent="1">
          <mxGeometry width="50" height="50" relative="1" as="geometry">
            <mxPoint x="2120" y="420" as="sourcePoint" />
            <mxPoint x="2120" y="440" as="targetPoint" />
          </mxGeometry>
        </mxCell>
        <mxCell id="J5TqSiO1KMNlUzjfTJ3k-137" value="6h" style="text;html=1;align=center;verticalAlign=middle;resizable=0;points=[];autosize=1;strokeColor=none;fillColor=none;" vertex="1" parent="1">
          <mxGeometry x="2040" y="250" width="40" height="30" as="geometry" />
        </mxCell>
        <mxCell id="J5TqSiO1KMNlUzjfTJ3k-139" value="6h" style="text;html=1;align=center;verticalAlign=middle;resizable=0;points=[];autosize=1;strokeColor=none;fillColor=none;" vertex="1" parent="1">
          <mxGeometry x="2040" y="335" width="40" height="30" as="geometry" />
        </mxCell>
        <mxCell id="J5TqSiO1KMNlUzjfTJ3k-140" value="6h" style="text;html=1;align=center;verticalAlign=middle;resizable=0;points=[];autosize=1;strokeColor=none;fillColor=none;" vertex="1" parent="1">
          <mxGeometry x="2040" y="420" width="40" height="30" as="geometry" />
        </mxCell>
        <mxCell id="J5TqSiO1KMNlUzjfTJ3k-141" value="" style="rounded=0;whiteSpace=wrap;html=1;" vertex="1" parent="1">
          <mxGeometry x="2200" y="240.39999999999998" width="120" height="40" as="geometry" />
        </mxCell>
        <mxCell id="J5TqSiO1KMNlUzjfTJ3k-142" value="" style="endArrow=none;html=1;rounded=0;entryX=0.333;entryY=-0.01;entryDx=0;entryDy=0;entryPerimeter=0;" edge="1" parent="1" target="J5TqSiO1KMNlUzjfTJ3k-141">
          <mxGeometry width="50" height="50" relative="1" as="geometry">
            <mxPoint x="2240" y="280.4" as="sourcePoint" />
            <mxPoint x="2300" y="260.4" as="targetPoint" />
          </mxGeometry>
        </mxCell>
        <mxCell id="J5TqSiO1KMNlUzjfTJ3k-143" value="" style="endArrow=none;html=1;rounded=0;exitX=0;exitY=0.5;exitDx=0;exitDy=0;entryX=1;entryY=0.5;entryDx=0;entryDy=0;" edge="1" parent="1" source="J5TqSiO1KMNlUzjfTJ3k-141" target="J5TqSiO1KMNlUzjfTJ3k-141">
          <mxGeometry width="50" height="50" relative="1" as="geometry">
            <mxPoint x="2250" y="310.4" as="sourcePoint" />
            <mxPoint x="2320" y="240.39999999999998" as="targetPoint" />
          </mxGeometry>
        </mxCell>
        <mxCell id="J5TqSiO1KMNlUzjfTJ3k-144" value="" style="endArrow=none;html=1;rounded=0;" edge="1" parent="1">
          <mxGeometry width="50" height="50" relative="1" as="geometry">
            <mxPoint x="2280" y="260.4" as="sourcePoint" />
            <mxPoint x="2280" y="280.4" as="targetPoint" />
          </mxGeometry>
        </mxCell>
        <mxCell id="J5TqSiO1KMNlUzjfTJ3k-145" value="" style="rounded=0;whiteSpace=wrap;html=1;" vertex="1" parent="1">
          <mxGeometry x="2200" y="321.2" width="120" height="40" as="geometry" />
        </mxCell>
        <mxCell id="J5TqSiO1KMNlUzjfTJ3k-146" value="" style="endArrow=none;html=1;rounded=0;entryX=0.333;entryY=-0.01;entryDx=0;entryDy=0;entryPerimeter=0;" edge="1" parent="1" target="J5TqSiO1KMNlUzjfTJ3k-145">
          <mxGeometry width="50" height="50" relative="1" as="geometry">
            <mxPoint x="2240" y="361.2" as="sourcePoint" />
            <mxPoint x="2300" y="341.2" as="targetPoint" />
          </mxGeometry>
        </mxCell>
        <mxCell id="J5TqSiO1KMNlUzjfTJ3k-147" value="" style="endArrow=none;html=1;rounded=0;exitX=0;exitY=0.5;exitDx=0;exitDy=0;entryX=1;entryY=0.5;entryDx=0;entryDy=0;" edge="1" parent="1" source="J5TqSiO1KMNlUzjfTJ3k-145" target="J5TqSiO1KMNlUzjfTJ3k-145">
          <mxGeometry width="50" height="50" relative="1" as="geometry">
            <mxPoint x="2250" y="391.2" as="sourcePoint" />
            <mxPoint x="2320" y="321.2" as="targetPoint" />
          </mxGeometry>
        </mxCell>
        <mxCell id="J5TqSiO1KMNlUzjfTJ3k-148" value="" style="endArrow=none;html=1;rounded=0;" edge="1" parent="1">
          <mxGeometry width="50" height="50" relative="1" as="geometry">
            <mxPoint x="2280" y="341.2" as="sourcePoint" />
            <mxPoint x="2280" y="361.2" as="targetPoint" />
          </mxGeometry>
        </mxCell>
        <mxCell id="J5TqSiO1KMNlUzjfTJ3k-149" value="" style="rounded=0;whiteSpace=wrap;html=1;" vertex="1" parent="1">
          <mxGeometry x="2200" y="400" width="120" height="40" as="geometry" />
        </mxCell>
        <mxCell id="J5TqSiO1KMNlUzjfTJ3k-150" value="" style="endArrow=none;html=1;rounded=0;entryX=0.333;entryY=-0.01;entryDx=0;entryDy=0;entryPerimeter=0;" edge="1" parent="1" target="J5TqSiO1KMNlUzjfTJ3k-149">
          <mxGeometry width="50" height="50" relative="1" as="geometry">
            <mxPoint x="2240" y="440" as="sourcePoint" />
            <mxPoint x="2300" y="420" as="targetPoint" />
          </mxGeometry>
        </mxCell>
        <mxCell id="J5TqSiO1KMNlUzjfTJ3k-151" value="" style="endArrow=none;html=1;rounded=0;exitX=0;exitY=0.5;exitDx=0;exitDy=0;entryX=1;entryY=0.5;entryDx=0;entryDy=0;" edge="1" parent="1" source="J5TqSiO1KMNlUzjfTJ3k-149" target="J5TqSiO1KMNlUzjfTJ3k-149">
          <mxGeometry width="50" height="50" relative="1" as="geometry">
            <mxPoint x="2250" y="470" as="sourcePoint" />
            <mxPoint x="2320" y="400" as="targetPoint" />
          </mxGeometry>
        </mxCell>
        <mxCell id="J5TqSiO1KMNlUzjfTJ3k-152" value="" style="endArrow=none;html=1;rounded=0;" edge="1" parent="1">
          <mxGeometry width="50" height="50" relative="1" as="geometry">
            <mxPoint x="2280" y="420" as="sourcePoint" />
            <mxPoint x="2280" y="440" as="targetPoint" />
          </mxGeometry>
        </mxCell>
        <mxCell id="J5TqSiO1KMNlUzjfTJ3k-153" value="4h" style="text;html=1;align=center;verticalAlign=middle;resizable=0;points=[];autosize=1;strokeColor=none;fillColor=none;" vertex="1" parent="1">
          <mxGeometry x="2200" y="260" width="40" height="30" as="geometry" />
        </mxCell>
        <mxCell id="J5TqSiO1KMNlUzjfTJ3k-155" value="6h" style="text;html=1;align=center;verticalAlign=middle;resizable=0;points=[];autosize=1;strokeColor=none;fillColor=none;" vertex="1" parent="1">
          <mxGeometry x="2200" y="340" width="40" height="30" as="geometry" />
        </mxCell>
        <mxCell id="J5TqSiO1KMNlUzjfTJ3k-157" value="6h" style="text;html=1;align=center;verticalAlign=middle;resizable=0;points=[];autosize=1;strokeColor=none;fillColor=none;" vertex="1" parent="1">
          <mxGeometry x="2200" y="420" width="40" height="30" as="geometry" />
        </mxCell>
        <mxCell id="J5TqSiO1KMNlUzjfTJ3k-158" value="" style="rounded=0;whiteSpace=wrap;html=1;" vertex="1" parent="1">
          <mxGeometry x="2361" y="400.2" width="120" height="40" as="geometry" />
        </mxCell>
        <mxCell id="J5TqSiO1KMNlUzjfTJ3k-159" value="" style="endArrow=none;html=1;rounded=0;entryX=0.333;entryY=-0.01;entryDx=0;entryDy=0;entryPerimeter=0;" edge="1" parent="1" target="J5TqSiO1KMNlUzjfTJ3k-158">
          <mxGeometry width="50" height="50" relative="1" as="geometry">
            <mxPoint x="2401" y="440.2" as="sourcePoint" />
            <mxPoint x="2461" y="420.2" as="targetPoint" />
          </mxGeometry>
        </mxCell>
        <mxCell id="J5TqSiO1KMNlUzjfTJ3k-160" value="" style="endArrow=none;html=1;rounded=0;exitX=0;exitY=0.5;exitDx=0;exitDy=0;entryX=1;entryY=0.5;entryDx=0;entryDy=0;" edge="1" parent="1" source="J5TqSiO1KMNlUzjfTJ3k-158" target="J5TqSiO1KMNlUzjfTJ3k-158">
          <mxGeometry width="50" height="50" relative="1" as="geometry">
            <mxPoint x="2411" y="470.2" as="sourcePoint" />
            <mxPoint x="2481" y="400.2" as="targetPoint" />
          </mxGeometry>
        </mxCell>
        <mxCell id="J5TqSiO1KMNlUzjfTJ3k-161" value="" style="endArrow=none;html=1;rounded=0;" edge="1" parent="1">
          <mxGeometry width="50" height="50" relative="1" as="geometry">
            <mxPoint x="2441" y="420.2" as="sourcePoint" />
            <mxPoint x="2441" y="440.2" as="targetPoint" />
          </mxGeometry>
        </mxCell>
        <mxCell id="J5TqSiO1KMNlUzjfTJ3k-162" value="6h" style="text;html=1;align=center;verticalAlign=middle;resizable=0;points=[];autosize=1;strokeColor=none;fillColor=none;" vertex="1" parent="1">
          <mxGeometry x="2350" y="420" width="40" height="30" as="geometry" />
        </mxCell>
        <mxCell id="J5TqSiO1KMNlUzjfTJ3k-163" value="" style="rounded=0;whiteSpace=wrap;html=1;" vertex="1" parent="1">
          <mxGeometry x="2520" y="321.2" width="120" height="40" as="geometry" />
        </mxCell>
        <mxCell id="J5TqSiO1KMNlUzjfTJ3k-164" value="" style="endArrow=none;html=1;rounded=0;entryX=0.333;entryY=-0.01;entryDx=0;entryDy=0;entryPerimeter=0;" edge="1" parent="1" target="J5TqSiO1KMNlUzjfTJ3k-163">
          <mxGeometry width="50" height="50" relative="1" as="geometry">
            <mxPoint x="2560" y="361.2" as="sourcePoint" />
            <mxPoint x="2620" y="341.2" as="targetPoint" />
          </mxGeometry>
        </mxCell>
        <mxCell id="J5TqSiO1KMNlUzjfTJ3k-165" value="" style="endArrow=none;html=1;rounded=0;exitX=0;exitY=0.5;exitDx=0;exitDy=0;entryX=1;entryY=0.5;entryDx=0;entryDy=0;" edge="1" parent="1" source="J5TqSiO1KMNlUzjfTJ3k-163" target="J5TqSiO1KMNlUzjfTJ3k-163">
          <mxGeometry width="50" height="50" relative="1" as="geometry">
            <mxPoint x="2570" y="391.2" as="sourcePoint" />
            <mxPoint x="2640" y="321.2" as="targetPoint" />
          </mxGeometry>
        </mxCell>
        <mxCell id="J5TqSiO1KMNlUzjfTJ3k-166" value="" style="endArrow=none;html=1;rounded=0;" edge="1" parent="1">
          <mxGeometry width="50" height="50" relative="1" as="geometry">
            <mxPoint x="2600" y="341.2" as="sourcePoint" />
            <mxPoint x="2600" y="361.2" as="targetPoint" />
          </mxGeometry>
        </mxCell>
        <mxCell id="J5TqSiO1KMNlUzjfTJ3k-167" value="6h" style="text;html=1;align=center;verticalAlign=middle;resizable=0;points=[];autosize=1;strokeColor=none;fillColor=none;" vertex="1" parent="1">
          <mxGeometry x="2520" y="340" width="40" height="30" as="geometry" />
        </mxCell>
        <mxCell id="J5TqSiO1KMNlUzjfTJ3k-168" value="" style="rounded=0;whiteSpace=wrap;html=1;" vertex="1" parent="1">
          <mxGeometry x="2680" y="235.39999999999998" width="120" height="40" as="geometry" />
        </mxCell>
        <mxCell id="J5TqSiO1KMNlUzjfTJ3k-169" value="" style="endArrow=none;html=1;rounded=0;entryX=0.333;entryY=-0.01;entryDx=0;entryDy=0;entryPerimeter=0;" edge="1" parent="1" target="J5TqSiO1KMNlUzjfTJ3k-168">
          <mxGeometry width="50" height="50" relative="1" as="geometry">
            <mxPoint x="2720" y="275.4" as="sourcePoint" />
            <mxPoint x="2780" y="255.39999999999998" as="targetPoint" />
          </mxGeometry>
        </mxCell>
        <mxCell id="J5TqSiO1KMNlUzjfTJ3k-170" value="" style="endArrow=none;html=1;rounded=0;exitX=0;exitY=0.5;exitDx=0;exitDy=0;entryX=1;entryY=0.5;entryDx=0;entryDy=0;" edge="1" parent="1" source="J5TqSiO1KMNlUzjfTJ3k-168" target="J5TqSiO1KMNlUzjfTJ3k-168">
          <mxGeometry width="50" height="50" relative="1" as="geometry">
            <mxPoint x="2730" y="305.4" as="sourcePoint" />
            <mxPoint x="2800" y="235.39999999999998" as="targetPoint" />
          </mxGeometry>
        </mxCell>
        <mxCell id="J5TqSiO1KMNlUzjfTJ3k-171" value="" style="endArrow=none;html=1;rounded=0;" edge="1" parent="1">
          <mxGeometry width="50" height="50" relative="1" as="geometry">
            <mxPoint x="2760" y="255.39999999999998" as="sourcePoint" />
            <mxPoint x="2760" y="275.4" as="targetPoint" />
          </mxGeometry>
        </mxCell>
        <mxCell id="J5TqSiO1KMNlUzjfTJ3k-172" value="" style="rounded=0;whiteSpace=wrap;html=1;" vertex="1" parent="1">
          <mxGeometry x="2680" y="320.4" width="120" height="40" as="geometry" />
        </mxCell>
        <mxCell id="J5TqSiO1KMNlUzjfTJ3k-173" value="" style="endArrow=none;html=1;rounded=0;entryX=0.333;entryY=-0.01;entryDx=0;entryDy=0;entryPerimeter=0;" edge="1" parent="1" target="J5TqSiO1KMNlUzjfTJ3k-172">
          <mxGeometry width="50" height="50" relative="1" as="geometry">
            <mxPoint x="2720" y="360.4" as="sourcePoint" />
            <mxPoint x="2780" y="340.4" as="targetPoint" />
          </mxGeometry>
        </mxCell>
        <mxCell id="J5TqSiO1KMNlUzjfTJ3k-174" value="" style="endArrow=none;html=1;rounded=0;exitX=0;exitY=0.5;exitDx=0;exitDy=0;entryX=1;entryY=0.5;entryDx=0;entryDy=0;" edge="1" parent="1" source="J5TqSiO1KMNlUzjfTJ3k-172" target="J5TqSiO1KMNlUzjfTJ3k-172">
          <mxGeometry width="50" height="50" relative="1" as="geometry">
            <mxPoint x="2730" y="390.4" as="sourcePoint" />
            <mxPoint x="2800" y="320.4" as="targetPoint" />
          </mxGeometry>
        </mxCell>
        <mxCell id="J5TqSiO1KMNlUzjfTJ3k-175" value="" style="endArrow=none;html=1;rounded=0;" edge="1" parent="1">
          <mxGeometry width="50" height="50" relative="1" as="geometry">
            <mxPoint x="2760" y="340.4" as="sourcePoint" />
            <mxPoint x="2760" y="360.4" as="targetPoint" />
          </mxGeometry>
        </mxCell>
        <mxCell id="J5TqSiO1KMNlUzjfTJ3k-176" value="6h" style="text;html=1;align=center;verticalAlign=middle;resizable=0;points=[];autosize=1;strokeColor=none;fillColor=none;" vertex="1" parent="1">
          <mxGeometry x="2680" y="335" width="40" height="30" as="geometry" />
        </mxCell>
        <mxCell id="J5TqSiO1KMNlUzjfTJ3k-177" value="6h" style="text;html=1;align=center;verticalAlign=middle;resizable=0;points=[];autosize=1;strokeColor=none;fillColor=none;" vertex="1" parent="1">
          <mxGeometry x="2680" y="250" width="40" height="30" as="geometry" />
        </mxCell>
        <mxCell id="J5TqSiO1KMNlUzjfTJ3k-178" value="" style="rounded=0;whiteSpace=wrap;html=1;" vertex="1" parent="1">
          <mxGeometry x="2840" y="235.79999999999998" width="120" height="40" as="geometry" />
        </mxCell>
        <mxCell id="J5TqSiO1KMNlUzjfTJ3k-179" value="" style="endArrow=none;html=1;rounded=0;entryX=0.333;entryY=-0.01;entryDx=0;entryDy=0;entryPerimeter=0;" edge="1" parent="1" target="J5TqSiO1KMNlUzjfTJ3k-178">
          <mxGeometry width="50" height="50" relative="1" as="geometry">
            <mxPoint x="2880" y="275.79999999999995" as="sourcePoint" />
            <mxPoint x="2940" y="255.79999999999998" as="targetPoint" />
          </mxGeometry>
        </mxCell>
        <mxCell id="J5TqSiO1KMNlUzjfTJ3k-180" value="" style="endArrow=none;html=1;rounded=0;exitX=0;exitY=0.5;exitDx=0;exitDy=0;entryX=1;entryY=0.5;entryDx=0;entryDy=0;" edge="1" parent="1" source="J5TqSiO1KMNlUzjfTJ3k-178" target="J5TqSiO1KMNlUzjfTJ3k-178">
          <mxGeometry width="50" height="50" relative="1" as="geometry">
            <mxPoint x="2890" y="305.79999999999995" as="sourcePoint" />
            <mxPoint x="2960" y="235.79999999999998" as="targetPoint" />
          </mxGeometry>
        </mxCell>
        <mxCell id="J5TqSiO1KMNlUzjfTJ3k-181" value="" style="endArrow=none;html=1;rounded=0;" edge="1" parent="1">
          <mxGeometry width="50" height="50" relative="1" as="geometry">
            <mxPoint x="2920" y="255.79999999999998" as="sourcePoint" />
            <mxPoint x="2920" y="275.79999999999995" as="targetPoint" />
          </mxGeometry>
        </mxCell>
        <mxCell id="J5TqSiO1KMNlUzjfTJ3k-182" value="6h" style="text;html=1;align=center;verticalAlign=middle;resizable=0;points=[];autosize=1;strokeColor=none;fillColor=none;" vertex="1" parent="1">
          <mxGeometry x="2840" y="250.4" width="40" height="30" as="geometry" />
        </mxCell>
        <mxCell id="J5TqSiO1KMNlUzjfTJ3k-184" value="" style="rounded=0;whiteSpace=wrap;html=1;" vertex="1" parent="1">
          <mxGeometry x="2840" y="321.59999999999997" width="120" height="40" as="geometry" />
        </mxCell>
        <mxCell id="J5TqSiO1KMNlUzjfTJ3k-185" value="" style="endArrow=none;html=1;rounded=0;entryX=0.333;entryY=-0.01;entryDx=0;entryDy=0;entryPerimeter=0;" edge="1" parent="1" target="J5TqSiO1KMNlUzjfTJ3k-184">
          <mxGeometry width="50" height="50" relative="1" as="geometry">
            <mxPoint x="2880" y="361.59999999999997" as="sourcePoint" />
            <mxPoint x="2940" y="341.59999999999997" as="targetPoint" />
          </mxGeometry>
        </mxCell>
        <mxCell id="J5TqSiO1KMNlUzjfTJ3k-186" value="" style="endArrow=none;html=1;rounded=0;exitX=0;exitY=0.5;exitDx=0;exitDy=0;entryX=1;entryY=0.5;entryDx=0;entryDy=0;" edge="1" parent="1" source="J5TqSiO1KMNlUzjfTJ3k-184" target="J5TqSiO1KMNlUzjfTJ3k-184">
          <mxGeometry width="50" height="50" relative="1" as="geometry">
            <mxPoint x="2890" y="391.59999999999997" as="sourcePoint" />
            <mxPoint x="2960" y="321.59999999999997" as="targetPoint" />
          </mxGeometry>
        </mxCell>
        <mxCell id="J5TqSiO1KMNlUzjfTJ3k-187" value="" style="endArrow=none;html=1;rounded=0;" edge="1" parent="1">
          <mxGeometry width="50" height="50" relative="1" as="geometry">
            <mxPoint x="2920" y="341.59999999999997" as="sourcePoint" />
            <mxPoint x="2920" y="361.59999999999997" as="targetPoint" />
          </mxGeometry>
        </mxCell>
        <mxCell id="J5TqSiO1KMNlUzjfTJ3k-183" value="8h" style="text;html=1;align=center;verticalAlign=middle;resizable=0;points=[];autosize=1;strokeColor=none;fillColor=none;" vertex="1" parent="1">
          <mxGeometry x="2840" y="335" width="40" height="30" as="geometry" />
        </mxCell>
        <mxCell id="J5TqSiO1KMNlUzjfTJ3k-189" value="" style="rounded=0;whiteSpace=wrap;html=1;" vertex="1" parent="1">
          <mxGeometry x="3000" y="160.39999999999998" width="120" height="40" as="geometry" />
        </mxCell>
        <mxCell id="J5TqSiO1KMNlUzjfTJ3k-190" value="" style="endArrow=none;html=1;rounded=0;entryX=0.333;entryY=-0.01;entryDx=0;entryDy=0;entryPerimeter=0;" edge="1" parent="1" target="J5TqSiO1KMNlUzjfTJ3k-189">
          <mxGeometry width="50" height="50" relative="1" as="geometry">
            <mxPoint x="3040" y="200.39999999999998" as="sourcePoint" />
            <mxPoint x="3100" y="180.39999999999998" as="targetPoint" />
          </mxGeometry>
        </mxCell>
        <mxCell id="J5TqSiO1KMNlUzjfTJ3k-191" value="" style="endArrow=none;html=1;rounded=0;exitX=0;exitY=0.5;exitDx=0;exitDy=0;entryX=1;entryY=0.5;entryDx=0;entryDy=0;" edge="1" parent="1" source="J5TqSiO1KMNlUzjfTJ3k-189" target="J5TqSiO1KMNlUzjfTJ3k-189">
          <mxGeometry width="50" height="50" relative="1" as="geometry">
            <mxPoint x="3050" y="230.39999999999998" as="sourcePoint" />
            <mxPoint x="3120" y="160.39999999999998" as="targetPoint" />
          </mxGeometry>
        </mxCell>
        <mxCell id="J5TqSiO1KMNlUzjfTJ3k-192" value="" style="endArrow=none;html=1;rounded=0;" edge="1" parent="1">
          <mxGeometry width="50" height="50" relative="1" as="geometry">
            <mxPoint x="3080" y="180.39999999999998" as="sourcePoint" />
            <mxPoint x="3080" y="200.39999999999998" as="targetPoint" />
          </mxGeometry>
        </mxCell>
        <mxCell id="J5TqSiO1KMNlUzjfTJ3k-193" value="" style="rounded=0;whiteSpace=wrap;html=1;" vertex="1" parent="1">
          <mxGeometry x="3160" y="160.39999999999998" width="120" height="40" as="geometry" />
        </mxCell>
        <mxCell id="J5TqSiO1KMNlUzjfTJ3k-194" value="" style="endArrow=none;html=1;rounded=0;entryX=0.333;entryY=-0.01;entryDx=0;entryDy=0;entryPerimeter=0;" edge="1" parent="1" target="J5TqSiO1KMNlUzjfTJ3k-193">
          <mxGeometry width="50" height="50" relative="1" as="geometry">
            <mxPoint x="3200" y="200.39999999999998" as="sourcePoint" />
            <mxPoint x="3260" y="180.39999999999998" as="targetPoint" />
          </mxGeometry>
        </mxCell>
        <mxCell id="J5TqSiO1KMNlUzjfTJ3k-195" value="" style="endArrow=none;html=1;rounded=0;exitX=0;exitY=0.5;exitDx=0;exitDy=0;entryX=1;entryY=0.5;entryDx=0;entryDy=0;" edge="1" parent="1" source="J5TqSiO1KMNlUzjfTJ3k-193" target="J5TqSiO1KMNlUzjfTJ3k-193">
          <mxGeometry width="50" height="50" relative="1" as="geometry">
            <mxPoint x="3210" y="230.39999999999998" as="sourcePoint" />
            <mxPoint x="3280" y="160.39999999999998" as="targetPoint" />
          </mxGeometry>
        </mxCell>
        <mxCell id="J5TqSiO1KMNlUzjfTJ3k-196" value="" style="endArrow=none;html=1;rounded=0;" edge="1" parent="1">
          <mxGeometry width="50" height="50" relative="1" as="geometry">
            <mxPoint x="3240" y="180.39999999999998" as="sourcePoint" />
            <mxPoint x="3240" y="200.39999999999998" as="targetPoint" />
          </mxGeometry>
        </mxCell>
        <mxCell id="J5TqSiO1KMNlUzjfTJ3k-197" value="" style="rounded=0;whiteSpace=wrap;html=1;" vertex="1" parent="1">
          <mxGeometry x="3320" y="161.59999999999997" width="120" height="40" as="geometry" />
        </mxCell>
        <mxCell id="J5TqSiO1KMNlUzjfTJ3k-198" value="" style="endArrow=none;html=1;rounded=0;entryX=0.333;entryY=-0.01;entryDx=0;entryDy=0;entryPerimeter=0;" edge="1" parent="1" target="J5TqSiO1KMNlUzjfTJ3k-197">
          <mxGeometry width="50" height="50" relative="1" as="geometry">
            <mxPoint x="3360" y="201.59999999999997" as="sourcePoint" />
            <mxPoint x="3420" y="181.59999999999997" as="targetPoint" />
          </mxGeometry>
        </mxCell>
        <mxCell id="J5TqSiO1KMNlUzjfTJ3k-199" value="" style="endArrow=none;html=1;rounded=0;exitX=0;exitY=0.5;exitDx=0;exitDy=0;entryX=1;entryY=0.5;entryDx=0;entryDy=0;" edge="1" parent="1" source="J5TqSiO1KMNlUzjfTJ3k-197" target="J5TqSiO1KMNlUzjfTJ3k-197">
          <mxGeometry width="50" height="50" relative="1" as="geometry">
            <mxPoint x="3370" y="231.59999999999997" as="sourcePoint" />
            <mxPoint x="3440" y="161.59999999999997" as="targetPoint" />
          </mxGeometry>
        </mxCell>
        <mxCell id="J5TqSiO1KMNlUzjfTJ3k-200" value="" style="endArrow=none;html=1;rounded=0;" edge="1" parent="1">
          <mxGeometry width="50" height="50" relative="1" as="geometry">
            <mxPoint x="3400" y="181.59999999999997" as="sourcePoint" />
            <mxPoint x="3400" y="201.59999999999997" as="targetPoint" />
          </mxGeometry>
        </mxCell>
        <mxCell id="J5TqSiO1KMNlUzjfTJ3k-201" value="" style="rounded=0;whiteSpace=wrap;html=1;" vertex="1" parent="1">
          <mxGeometry x="1880" y="80.39999999999998" width="120" height="40" as="geometry" />
        </mxCell>
        <mxCell id="J5TqSiO1KMNlUzjfTJ3k-202" value="" style="endArrow=none;html=1;rounded=0;entryX=0.333;entryY=-0.01;entryDx=0;entryDy=0;entryPerimeter=0;" edge="1" parent="1" target="J5TqSiO1KMNlUzjfTJ3k-201">
          <mxGeometry width="50" height="50" relative="1" as="geometry">
            <mxPoint x="1920" y="120.39999999999998" as="sourcePoint" />
            <mxPoint x="1980" y="100.39999999999998" as="targetPoint" />
          </mxGeometry>
        </mxCell>
        <mxCell id="J5TqSiO1KMNlUzjfTJ3k-203" value="" style="endArrow=none;html=1;rounded=0;exitX=0;exitY=0.5;exitDx=0;exitDy=0;entryX=1;entryY=0.5;entryDx=0;entryDy=0;" edge="1" parent="1" source="J5TqSiO1KMNlUzjfTJ3k-201" target="J5TqSiO1KMNlUzjfTJ3k-201">
          <mxGeometry width="50" height="50" relative="1" as="geometry">
            <mxPoint x="1930" y="150.39999999999998" as="sourcePoint" />
            <mxPoint x="2000" y="80.39999999999998" as="targetPoint" />
          </mxGeometry>
        </mxCell>
        <mxCell id="J5TqSiO1KMNlUzjfTJ3k-204" value="" style="endArrow=none;html=1;rounded=0;" edge="1" parent="1">
          <mxGeometry width="50" height="50" relative="1" as="geometry">
            <mxPoint x="1960" y="100.39999999999998" as="sourcePoint" />
            <mxPoint x="1960" y="120.39999999999998" as="targetPoint" />
          </mxGeometry>
        </mxCell>
        <mxCell id="J5TqSiO1KMNlUzjfTJ3k-205" value="" style="rounded=0;whiteSpace=wrap;html=1;" vertex="1" parent="1">
          <mxGeometry x="3160" y="80.39999999999998" width="120" height="40" as="geometry" />
        </mxCell>
        <mxCell id="J5TqSiO1KMNlUzjfTJ3k-206" value="" style="endArrow=none;html=1;rounded=0;entryX=0.333;entryY=-0.01;entryDx=0;entryDy=0;entryPerimeter=0;" edge="1" parent="1" target="J5TqSiO1KMNlUzjfTJ3k-205">
          <mxGeometry width="50" height="50" relative="1" as="geometry">
            <mxPoint x="3200" y="120.39999999999998" as="sourcePoint" />
            <mxPoint x="3260" y="100.39999999999998" as="targetPoint" />
          </mxGeometry>
        </mxCell>
        <mxCell id="J5TqSiO1KMNlUzjfTJ3k-207" value="" style="endArrow=none;html=1;rounded=0;exitX=0;exitY=0.5;exitDx=0;exitDy=0;entryX=1;entryY=0.5;entryDx=0;entryDy=0;" edge="1" parent="1" source="J5TqSiO1KMNlUzjfTJ3k-205" target="J5TqSiO1KMNlUzjfTJ3k-205">
          <mxGeometry width="50" height="50" relative="1" as="geometry">
            <mxPoint x="3210" y="150.39999999999998" as="sourcePoint" />
            <mxPoint x="3280" y="80.39999999999998" as="targetPoint" />
          </mxGeometry>
        </mxCell>
        <mxCell id="J5TqSiO1KMNlUzjfTJ3k-208" value="" style="endArrow=none;html=1;rounded=0;" edge="1" parent="1">
          <mxGeometry width="50" height="50" relative="1" as="geometry">
            <mxPoint x="3240" y="100.39999999999998" as="sourcePoint" />
            <mxPoint x="3240" y="120.39999999999998" as="targetPoint" />
          </mxGeometry>
        </mxCell>
        <mxCell id="J5TqSiO1KMNlUzjfTJ3k-209" value="" style="endArrow=none;html=1;rounded=0;entryX=0;entryY=0.5;entryDx=0;entryDy=0;" edge="1" parent="1" target="J5TqSiO1KMNlUzjfTJ3k-201">
          <mxGeometry width="50" height="50" relative="1" as="geometry">
            <mxPoint x="1840" y="260" as="sourcePoint" />
            <mxPoint x="2060" y="230" as="targetPoint" />
          </mxGeometry>
        </mxCell>
        <mxCell id="J5TqSiO1KMNlUzjfTJ3k-210" value="" style="endArrow=none;html=1;rounded=0;exitX=1;exitY=0.5;exitDx=0;exitDy=0;entryX=-0.008;entryY=0.211;entryDx=0;entryDy=0;entryPerimeter=0;" edge="1" parent="1" source="J5TqSiO1KMNlUzjfTJ3k-89" target="J5TqSiO1KMNlUzjfTJ3k-121">
          <mxGeometry width="50" height="50" relative="1" as="geometry">
            <mxPoint x="2010" y="280" as="sourcePoint" />
            <mxPoint x="2030" y="160" as="targetPoint" />
          </mxGeometry>
        </mxCell>
        <mxCell id="J5TqSiO1KMNlUzjfTJ3k-211" value="" style="endArrow=none;html=1;rounded=0;exitX=1;exitY=0.5;exitDx=0;exitDy=0;entryX=-0.025;entryY=0.193;entryDx=0;entryDy=0;entryPerimeter=0;" edge="1" parent="1" source="J5TqSiO1KMNlUzjfTJ3k-85" target="J5TqSiO1KMNlUzjfTJ3k-137">
          <mxGeometry width="50" height="50" relative="1" as="geometry">
            <mxPoint x="2020" y="300" as="sourcePoint" />
            <mxPoint x="2020" y="250" as="targetPoint" />
          </mxGeometry>
        </mxCell>
        <mxCell id="J5TqSiO1KMNlUzjfTJ3k-212" value="" style="endArrow=none;html=1;rounded=0;entryX=-0.008;entryY=0.204;entryDx=0;entryDy=0;entryPerimeter=0;" edge="1" parent="1" target="J5TqSiO1KMNlUzjfTJ3k-139">
          <mxGeometry width="50" height="50" relative="1" as="geometry">
            <mxPoint x="2000" y="340" as="sourcePoint" />
            <mxPoint x="2080" y="260" as="targetPoint" />
          </mxGeometry>
        </mxCell>
        <mxCell id="J5TqSiO1KMNlUzjfTJ3k-213" value="" style="endArrow=none;html=1;rounded=0;entryX=0;entryY=0.5;entryDx=0;entryDy=0;" edge="1" parent="1" target="J5TqSiO1KMNlUzjfTJ3k-133">
          <mxGeometry width="50" height="50" relative="1" as="geometry">
            <mxPoint x="2000" y="340" as="sourcePoint" />
            <mxPoint x="2080" y="370" as="targetPoint" />
          </mxGeometry>
        </mxCell>
        <mxCell id="J5TqSiO1KMNlUzjfTJ3k-214" value="" style="endArrow=none;html=1;rounded=0;exitX=1;exitY=0.5;exitDx=0;exitDy=0;entryX=0.231;entryY=0.076;entryDx=0;entryDy=0;entryPerimeter=0;" edge="1" parent="1" source="J5TqSiO1KMNlUzjfTJ3k-105" target="J5TqSiO1KMNlUzjfTJ3k-122">
          <mxGeometry width="50" height="50" relative="1" as="geometry">
            <mxPoint x="2400" y="260" as="sourcePoint" />
            <mxPoint x="2450" y="210" as="targetPoint" />
          </mxGeometry>
        </mxCell>
        <mxCell id="J5TqSiO1KMNlUzjfTJ3k-215" value="" style="endArrow=none;html=1;rounded=0;exitX=1;exitY=0.5;exitDx=0;exitDy=0;entryX=0.025;entryY=0.039;entryDx=0;entryDy=0;entryPerimeter=0;" edge="1" parent="1" source="J5TqSiO1KMNlUzjfTJ3k-109" target="J5TqSiO1KMNlUzjfTJ3k-123">
          <mxGeometry width="50" height="50" relative="1" as="geometry">
            <mxPoint x="2350" y="260" as="sourcePoint" />
            <mxPoint x="2400" y="210" as="targetPoint" />
          </mxGeometry>
        </mxCell>
        <mxCell id="J5TqSiO1KMNlUzjfTJ3k-216" value="" style="endArrow=none;html=1;rounded=0;entryX=1;entryY=0.5;entryDx=0;entryDy=0;exitX=0.05;exitY=0.057;exitDx=0;exitDy=0;exitPerimeter=0;" edge="1" parent="1" source="J5TqSiO1KMNlUzjfTJ3k-124" target="J5TqSiO1KMNlUzjfTJ3k-113">
          <mxGeometry width="50" height="50" relative="1" as="geometry">
            <mxPoint x="2350" y="260" as="sourcePoint" />
            <mxPoint x="2400" y="210" as="targetPoint" />
          </mxGeometry>
        </mxCell>
        <mxCell id="J5TqSiO1KMNlUzjfTJ3k-217" value="" style="endArrow=none;html=1;rounded=0;entryX=-0.005;entryY=0.044;entryDx=0;entryDy=0;entryPerimeter=0;exitX=1;exitY=0.5;exitDx=0;exitDy=0;" edge="1" parent="1" source="J5TqSiO1KMNlUzjfTJ3k-125" target="J5TqSiO1KMNlUzjfTJ3k-153">
          <mxGeometry width="50" height="50" relative="1" as="geometry">
            <mxPoint x="2190" y="380" as="sourcePoint" />
            <mxPoint x="2240" y="330" as="targetPoint" />
          </mxGeometry>
        </mxCell>
        <mxCell id="J5TqSiO1KMNlUzjfTJ3k-218" value="" style="endArrow=none;html=1;rounded=0;entryX=-0.018;entryY=0.116;entryDx=0;entryDy=0;entryPerimeter=0;exitX=1;exitY=0.5;exitDx=0;exitDy=0;" edge="1" parent="1" source="J5TqSiO1KMNlUzjfTJ3k-129" target="J5TqSiO1KMNlUzjfTJ3k-155">
          <mxGeometry width="50" height="50" relative="1" as="geometry">
            <mxPoint x="2190" y="380" as="sourcePoint" />
            <mxPoint x="2240" y="330" as="targetPoint" />
          </mxGeometry>
        </mxCell>
        <mxCell id="J5TqSiO1KMNlUzjfTJ3k-219" value="" style="endArrow=none;html=1;rounded=0;entryX=0;entryY=0.5;entryDx=0;entryDy=0;exitX=1;exitY=0.5;exitDx=0;exitDy=0;" edge="1" parent="1" source="J5TqSiO1KMNlUzjfTJ3k-133" target="J5TqSiO1KMNlUzjfTJ3k-149">
          <mxGeometry width="50" height="50" relative="1" as="geometry">
            <mxPoint x="2190" y="380" as="sourcePoint" />
            <mxPoint x="2240" y="330" as="targetPoint" />
          </mxGeometry>
        </mxCell>
        <mxCell id="J5TqSiO1KMNlUzjfTJ3k-220" value="" style="endArrow=none;html=1;rounded=0;entryX=0.257;entryY=-0.037;entryDx=0;entryDy=0;entryPerimeter=0;" edge="1" parent="1" target="J5TqSiO1KMNlUzjfTJ3k-162">
          <mxGeometry width="50" height="50" relative="1" as="geometry">
            <mxPoint x="2320" y="419" as="sourcePoint" />
            <mxPoint x="2350" y="410" as="targetPoint" />
          </mxGeometry>
        </mxCell>
        <mxCell id="J5TqSiO1KMNlUzjfTJ3k-221" value="" style="endArrow=none;html=1;rounded=0;exitX=1;exitY=0.5;exitDx=0;exitDy=0;entryX=0.043;entryY=0.013;entryDx=0;entryDy=0;entryPerimeter=0;" edge="1" parent="1" source="J5TqSiO1KMNlUzjfTJ3k-158" target="J5TqSiO1KMNlUzjfTJ3k-167">
          <mxGeometry width="50" height="50" relative="1" as="geometry">
            <mxPoint x="2510" y="410" as="sourcePoint" />
            <mxPoint x="2560" y="360" as="targetPoint" />
          </mxGeometry>
        </mxCell>
        <mxCell id="J5TqSiO1KMNlUzjfTJ3k-222" value="" style="endArrow=none;html=1;rounded=0;exitX=1;exitY=0.5;exitDx=0;exitDy=0;" edge="1" parent="1" source="J5TqSiO1KMNlUzjfTJ3k-145">
          <mxGeometry width="50" height="50" relative="1" as="geometry">
            <mxPoint x="2510" y="410" as="sourcePoint" />
            <mxPoint x="2520" y="340" as="targetPoint" />
          </mxGeometry>
        </mxCell>
        <mxCell id="J5TqSiO1KMNlUzjfTJ3k-223" value="" style="endArrow=none;html=1;rounded=0;exitX=1;exitY=0.5;exitDx=0;exitDy=0;entryX=-0.045;entryY=0.253;entryDx=0;entryDy=0;entryPerimeter=0;" edge="1" parent="1" source="J5TqSiO1KMNlUzjfTJ3k-141" target="J5TqSiO1KMNlUzjfTJ3k-177">
          <mxGeometry width="50" height="50" relative="1" as="geometry">
            <mxPoint x="2510" y="410" as="sourcePoint" />
            <mxPoint x="2560" y="360" as="targetPoint" />
          </mxGeometry>
        </mxCell>
        <mxCell id="J5TqSiO1KMNlUzjfTJ3k-224" value="" style="endArrow=none;html=1;rounded=0;entryX=0;entryY=0.189;entryDx=0;entryDy=0;entryPerimeter=0;exitX=1;exitY=0.5;exitDx=0;exitDy=0;" edge="1" parent="1" source="J5TqSiO1KMNlUzjfTJ3k-163" target="J5TqSiO1KMNlUzjfTJ3k-176">
          <mxGeometry width="50" height="50" relative="1" as="geometry">
            <mxPoint x="2560" y="400" as="sourcePoint" />
            <mxPoint x="2610" y="350" as="targetPoint" />
          </mxGeometry>
        </mxCell>
        <mxCell id="J5TqSiO1KMNlUzjfTJ3k-225" value="" style="endArrow=none;html=1;rounded=0;entryX=-0.017;entryY=0.256;entryDx=0;entryDy=0;entryPerimeter=0;exitX=1;exitY=0.5;exitDx=0;exitDy=0;" edge="1" parent="1" source="J5TqSiO1KMNlUzjfTJ3k-172" target="J5TqSiO1KMNlUzjfTJ3k-183">
          <mxGeometry width="50" height="50" relative="1" as="geometry">
            <mxPoint x="2820" y="360" as="sourcePoint" />
            <mxPoint x="2870" y="310" as="targetPoint" />
          </mxGeometry>
        </mxCell>
        <mxCell id="J5TqSiO1KMNlUzjfTJ3k-226" value="" style="endArrow=none;html=1;rounded=0;entryX=-0.017;entryY=0.276;entryDx=0;entryDy=0;entryPerimeter=0;exitX=1;exitY=0.5;exitDx=0;exitDy=0;" edge="1" parent="1" source="J5TqSiO1KMNlUzjfTJ3k-168" target="J5TqSiO1KMNlUzjfTJ3k-182">
          <mxGeometry width="50" height="50" relative="1" as="geometry">
            <mxPoint x="2820" y="360" as="sourcePoint" />
            <mxPoint x="2870" y="310" as="targetPoint" />
          </mxGeometry>
        </mxCell>
        <mxCell id="J5TqSiO1KMNlUzjfTJ3k-227" value="" style="endArrow=none;html=1;rounded=0;exitX=1;exitY=0.5;exitDx=0;exitDy=0;" edge="1" parent="1" source="J5TqSiO1KMNlUzjfTJ3k-117">
          <mxGeometry width="50" height="50" relative="1" as="geometry">
            <mxPoint x="2910" y="280" as="sourcePoint" />
            <mxPoint x="3000" y="180" as="targetPoint" />
          </mxGeometry>
        </mxCell>
        <mxCell id="J5TqSiO1KMNlUzjfTJ3k-228" value="" style="endArrow=none;html=1;rounded=0;entryX=0;entryY=0.5;entryDx=0;entryDy=0;exitX=1;exitY=0.5;exitDx=0;exitDy=0;" edge="1" parent="1" source="J5TqSiO1KMNlUzjfTJ3k-178" target="J5TqSiO1KMNlUzjfTJ3k-189">
          <mxGeometry width="50" height="50" relative="1" as="geometry">
            <mxPoint x="2910" y="280" as="sourcePoint" />
            <mxPoint x="2960" y="230" as="targetPoint" />
          </mxGeometry>
        </mxCell>
        <mxCell id="J5TqSiO1KMNlUzjfTJ3k-229" value="" style="endArrow=none;html=1;rounded=0;exitX=1;exitY=0.5;exitDx=0;exitDy=0;" edge="1" parent="1" source="J5TqSiO1KMNlUzjfTJ3k-184">
          <mxGeometry width="50" height="50" relative="1" as="geometry">
            <mxPoint x="2910" y="280" as="sourcePoint" />
            <mxPoint x="3000" y="180" as="targetPoint" />
          </mxGeometry>
        </mxCell>
        <mxCell id="J5TqSiO1KMNlUzjfTJ3k-230" value="" style="endArrow=none;html=1;rounded=0;entryX=0;entryY=0.5;entryDx=0;entryDy=0;" edge="1" parent="1" target="J5TqSiO1KMNlUzjfTJ3k-193">
          <mxGeometry width="50" height="50" relative="1" as="geometry">
            <mxPoint x="3120" y="180" as="sourcePoint" />
            <mxPoint x="3330" y="180" as="targetPoint" />
          </mxGeometry>
        </mxCell>
        <mxCell id="J5TqSiO1KMNlUzjfTJ3k-231" value="" style="endArrow=none;html=1;rounded=0;exitX=1;exitY=0.5;exitDx=0;exitDy=0;" edge="1" parent="1" source="J5TqSiO1KMNlUzjfTJ3k-193">
          <mxGeometry width="50" height="50" relative="1" as="geometry">
            <mxPoint x="3280" y="230" as="sourcePoint" />
            <mxPoint x="3320" y="180" as="targetPoint" />
          </mxGeometry>
        </mxCell>
        <mxCell id="J5TqSiO1KMNlUzjfTJ3k-232" value="" style="endArrow=none;html=1;rounded=0;exitX=1;exitY=0.5;exitDx=0;exitDy=0;" edge="1" parent="1" source="J5TqSiO1KMNlUzjfTJ3k-201">
          <mxGeometry width="50" height="50" relative="1" as="geometry">
            <mxPoint x="2560" y="270" as="sourcePoint" />
            <mxPoint x="3170" y="100" as="targetPoint" />
          </mxGeometry>
        </mxCell>
        <mxCell id="J5TqSiO1KMNlUzjfTJ3k-233" value="" style="endArrow=none;html=1;rounded=0;entryX=1;entryY=0.5;entryDx=0;entryDy=0;exitX=0;exitY=0.5;exitDx=0;exitDy=0;" edge="1" parent="1" source="J5TqSiO1KMNlUzjfTJ3k-197" target="J5TqSiO1KMNlUzjfTJ3k-205">
          <mxGeometry width="50" height="50" relative="1" as="geometry">
            <mxPoint x="3260" y="250" as="sourcePoint" />
            <mxPoint x="3310" y="200" as="targetPoint" />
          </mxGeometry>
        </mxCell>
        <mxCell id="J5TqSiO1KMNlUzjfTJ3k-234" value="10h" style="text;html=1;align=center;verticalAlign=middle;resizable=0;points=[];autosize=1;strokeColor=none;fillColor=none;" vertex="1" parent="1">
          <mxGeometry x="1875" y="100" width="40" height="30" as="geometry" />
        </mxCell>
        <mxCell id="J5TqSiO1KMNlUzjfTJ3k-235" value="2h" style="text;html=1;align=center;verticalAlign=middle;resizable=0;points=[];autosize=1;strokeColor=none;fillColor=none;" vertex="1" parent="1">
          <mxGeometry x="3150" y="100" width="40" height="30" as="geometry" />
        </mxCell>
        <mxCell id="J5TqSiO1KMNlUzjfTJ3k-236" value="10h" style="text;html=1;align=center;verticalAlign=middle;resizable=0;points=[];autosize=1;strokeColor=none;fillColor=none;" vertex="1" parent="1">
          <mxGeometry x="3000" y="171.6" width="40" height="30" as="geometry" />
        </mxCell>
        <mxCell id="J5TqSiO1KMNlUzjfTJ3k-238" value="8h" style="text;html=1;align=center;verticalAlign=middle;resizable=0;points=[];autosize=1;strokeColor=none;fillColor=none;" vertex="1" parent="1">
          <mxGeometry x="3160" y="175" width="40" height="30" as="geometry" />
        </mxCell>
        <mxCell id="J5TqSiO1KMNlUzjfTJ3k-239" value="8h" style="text;html=1;align=center;verticalAlign=middle;resizable=0;points=[];autosize=1;strokeColor=none;fillColor=none;" vertex="1" parent="1">
          <mxGeometry x="3320" y="180" width="40" height="30" as="geometry" />
        </mxCell>
        <mxCell id="J5TqSiO1KMNlUzjfTJ3k-240" value="4" style="text;html=1;align=center;verticalAlign=middle;resizable=0;points=[];autosize=1;strokeColor=none;fillColor=none;" vertex="1" parent="1">
          <mxGeometry x="1870" y="55" width="30" height="30" as="geometry" />
        </mxCell>
        <mxCell id="J5TqSiO1KMNlUzjfTJ3k-241" value="4" style="text;html=1;align=center;verticalAlign=middle;resizable=0;points=[];autosize=1;strokeColor=none;fillColor=none;" vertex="1" parent="1">
          <mxGeometry x="1870" y="140" width="30" height="30" as="geometry" />
        </mxCell>
        <mxCell id="J5TqSiO1KMNlUzjfTJ3k-242" value="4" style="text;html=1;align=center;verticalAlign=middle;resizable=0;points=[];autosize=1;strokeColor=none;fillColor=none;" vertex="1" parent="1">
          <mxGeometry x="1870" y="295" width="30" height="30" as="geometry" />
        </mxCell>
        <mxCell id="J5TqSiO1KMNlUzjfTJ3k-243" value="14" style="text;html=1;align=center;verticalAlign=middle;resizable=0;points=[];autosize=1;strokeColor=none;fillColor=none;" vertex="1" parent="1">
          <mxGeometry x="1970" y="55" width="40" height="30" as="geometry" />
        </mxCell>
        <mxCell id="J5TqSiO1KMNlUzjfTJ3k-244" value="10" style="text;html=1;align=center;verticalAlign=middle;resizable=0;points=[];autosize=1;strokeColor=none;fillColor=none;" vertex="1" parent="1">
          <mxGeometry x="1980" y="131.6" width="40" height="30" as="geometry" />
        </mxCell>
        <mxCell id="J5TqSiO1KMNlUzjfTJ3k-245" value="14" style="text;html=1;align=center;verticalAlign=middle;resizable=0;points=[];autosize=1;strokeColor=none;fillColor=none;" vertex="1" parent="1">
          <mxGeometry x="1980" y="295" width="40" height="30" as="geometry" />
        </mxCell>
        <mxCell id="J5TqSiO1KMNlUzjfTJ3k-247" value="14" style="text;html=1;align=center;verticalAlign=middle;resizable=0;points=[];autosize=1;strokeColor=none;fillColor=none;" vertex="1" parent="1">
          <mxGeometry x="2010" y="210.4" width="40" height="30" as="geometry" />
        </mxCell>
        <mxCell id="J5TqSiO1KMNlUzjfTJ3k-248" value="14" style="text;html=1;align=center;verticalAlign=middle;resizable=0;points=[];autosize=1;strokeColor=none;fillColor=none;" vertex="1" parent="1">
          <mxGeometry x="2010" y="295" width="40" height="30" as="geometry" />
        </mxCell>
        <mxCell id="J5TqSiO1KMNlUzjfTJ3k-249" value="14" style="text;html=1;align=center;verticalAlign=middle;resizable=0;points=[];autosize=1;strokeColor=none;fillColor=none;" vertex="1" parent="1">
          <mxGeometry x="2020" y="380" width="40" height="30" as="geometry" />
        </mxCell>
        <mxCell id="J5TqSiO1KMNlUzjfTJ3k-250" value="10" style="text;html=1;align=center;verticalAlign=middle;resizable=0;points=[];autosize=1;strokeColor=none;fillColor=none;" vertex="1" parent="1">
          <mxGeometry x="2020" y="131.6" width="40" height="30" as="geometry" />
        </mxCell>
        <mxCell id="J5TqSiO1KMNlUzjfTJ3k-251" value="20" style="text;html=1;align=center;verticalAlign=middle;resizable=0;points=[];autosize=1;strokeColor=none;fillColor=none;" vertex="1" parent="1">
          <mxGeometry x="2140" y="210.4" width="40" height="30" as="geometry" />
        </mxCell>
        <mxCell id="J5TqSiO1KMNlUzjfTJ3k-252" value="20" style="text;html=1;align=center;verticalAlign=middle;resizable=0;points=[];autosize=1;strokeColor=none;fillColor=none;" vertex="1" parent="1">
          <mxGeometry x="2140" y="291.6" width="40" height="30" as="geometry" />
        </mxCell>
        <mxCell id="J5TqSiO1KMNlUzjfTJ3k-253" value="20" style="text;html=1;align=center;verticalAlign=middle;resizable=0;points=[];autosize=1;strokeColor=none;fillColor=none;" vertex="1" parent="1">
          <mxGeometry x="2140" y="380" width="40" height="30" as="geometry" />
        </mxCell>
        <mxCell id="J5TqSiO1KMNlUzjfTJ3k-254" value="20" style="text;html=1;align=center;verticalAlign=middle;resizable=0;points=[];autosize=1;strokeColor=none;fillColor=none;" vertex="1" parent="1">
          <mxGeometry x="2190" y="220" width="40" height="30" as="geometry" />
        </mxCell>
        <mxCell id="J5TqSiO1KMNlUzjfTJ3k-255" value="20" style="text;html=1;align=center;verticalAlign=middle;resizable=0;points=[];autosize=1;strokeColor=none;fillColor=none;" vertex="1" parent="1">
          <mxGeometry x="2180" y="291.6" width="40" height="30" as="geometry" />
        </mxCell>
        <mxCell id="J5TqSiO1KMNlUzjfTJ3k-256" value="20" style="text;html=1;align=center;verticalAlign=middle;resizable=0;points=[];autosize=1;strokeColor=none;fillColor=none;" vertex="1" parent="1">
          <mxGeometry x="2180" y="380" width="40" height="30" as="geometry" />
        </mxCell>
        <mxCell id="J5TqSiO1KMNlUzjfTJ3k-257" value="24" style="text;html=1;align=center;verticalAlign=middle;resizable=0;points=[];autosize=1;strokeColor=none;fillColor=none;" vertex="1" parent="1">
          <mxGeometry x="2290" y="220" width="40" height="30" as="geometry" />
        </mxCell>
        <mxCell id="J5TqSiO1KMNlUzjfTJ3k-258" value="26" style="text;html=1;align=center;verticalAlign=middle;resizable=0;points=[];autosize=1;strokeColor=none;fillColor=none;" vertex="1" parent="1">
          <mxGeometry x="2300" y="295" width="40" height="30" as="geometry" />
        </mxCell>
        <mxCell id="J5TqSiO1KMNlUzjfTJ3k-259" value="26" style="text;html=1;align=center;verticalAlign=middle;resizable=0;points=[];autosize=1;strokeColor=none;fillColor=none;" vertex="1" parent="1">
          <mxGeometry x="2300" y="380" width="40" height="30" as="geometry" />
        </mxCell>
        <mxCell id="J5TqSiO1KMNlUzjfTJ3k-260" value="26" style="text;html=1;align=center;verticalAlign=middle;resizable=0;points=[];autosize=1;strokeColor=none;fillColor=none;" vertex="1" parent="1">
          <mxGeometry x="2340" y="380" width="40" height="30" as="geometry" />
        </mxCell>
        <mxCell id="J5TqSiO1KMNlUzjfTJ3k-261" value="32" style="text;html=1;align=center;verticalAlign=middle;resizable=0;points=[];autosize=1;strokeColor=none;fillColor=none;" vertex="1" parent="1">
          <mxGeometry x="2460" y="370.2" width="40" height="30" as="geometry" />
        </mxCell>
        <mxCell id="J5TqSiO1KMNlUzjfTJ3k-262" value="32" style="text;html=1;align=center;verticalAlign=middle;resizable=0;points=[];autosize=1;strokeColor=none;fillColor=none;" vertex="1" parent="1">
          <mxGeometry x="2500" y="300" width="40" height="30" as="geometry" />
        </mxCell>
        <mxCell id="J5TqSiO1KMNlUzjfTJ3k-263" value="38" style="text;html=1;align=center;verticalAlign=middle;resizable=0;points=[];autosize=1;strokeColor=none;fillColor=none;" vertex="1" parent="1">
          <mxGeometry x="2620" y="298" width="40" height="30" as="geometry" />
        </mxCell>
        <mxCell id="J5TqSiO1KMNlUzjfTJ3k-264" value="38" style="text;html=1;align=center;verticalAlign=middle;resizable=0;points=[];autosize=1;strokeColor=none;fillColor=none;" vertex="1" parent="1">
          <mxGeometry x="2660" y="300" width="40" height="30" as="geometry" />
        </mxCell>
        <mxCell id="J5TqSiO1KMNlUzjfTJ3k-265" value="44" style="text;html=1;align=center;verticalAlign=middle;resizable=0;points=[];autosize=1;strokeColor=none;fillColor=none;" vertex="1" parent="1">
          <mxGeometry x="2770" y="298" width="40" height="30" as="geometry" />
        </mxCell>
        <mxCell id="J5TqSiO1KMNlUzjfTJ3k-266" value="44" style="text;html=1;align=center;verticalAlign=middle;resizable=0;points=[];autosize=1;strokeColor=none;fillColor=none;" vertex="1" parent="1">
          <mxGeometry x="2820" y="300" width="40" height="30" as="geometry" />
        </mxCell>
        <mxCell id="J5TqSiO1KMNlUzjfTJ3k-267" value="52" style="text;html=1;align=center;verticalAlign=middle;resizable=0;points=[];autosize=1;strokeColor=none;fillColor=none;" vertex="1" parent="1">
          <mxGeometry x="2930" y="300" width="40" height="30" as="geometry" />
        </mxCell>
        <mxCell id="J5TqSiO1KMNlUzjfTJ3k-268" value="24" style="text;html=1;align=center;verticalAlign=middle;resizable=0;points=[];autosize=1;strokeColor=none;fillColor=none;" vertex="1" parent="1">
          <mxGeometry x="2660" y="210" width="40" height="30" as="geometry" />
        </mxCell>
        <mxCell id="J5TqSiO1KMNlUzjfTJ3k-269" value="30" style="text;html=1;align=center;verticalAlign=middle;resizable=0;points=[];autosize=1;strokeColor=none;fillColor=none;" vertex="1" parent="1">
          <mxGeometry x="2780" y="210" width="40" height="30" as="geometry" />
        </mxCell>
        <mxCell id="J5TqSiO1KMNlUzjfTJ3k-270" value="30" style="text;html=1;align=center;verticalAlign=middle;resizable=0;points=[];autosize=1;strokeColor=none;fillColor=none;" vertex="1" parent="1">
          <mxGeometry x="2820" y="210" width="40" height="30" as="geometry" />
        </mxCell>
        <mxCell id="J5TqSiO1KMNlUzjfTJ3k-271" value="36" style="text;html=1;align=center;verticalAlign=middle;resizable=0;points=[];autosize=1;strokeColor=none;fillColor=none;" vertex="1" parent="1">
          <mxGeometry x="2930" y="210.4" width="40" height="30" as="geometry" />
        </mxCell>
        <mxCell id="J5TqSiO1KMNlUzjfTJ3k-272" value="52" style="text;html=1;align=center;verticalAlign=middle;resizable=0;points=[];autosize=1;strokeColor=none;fillColor=none;" vertex="1" parent="1">
          <mxGeometry x="2980" y="131.6" width="40" height="30" as="geometry" />
        </mxCell>
        <mxCell id="J5TqSiO1KMNlUzjfTJ3k-273" value="12" style="text;html=1;align=center;verticalAlign=middle;resizable=0;points=[];autosize=1;strokeColor=none;fillColor=none;" vertex="1" parent="1">
          <mxGeometry x="2130" y="131.6" width="40" height="30" as="geometry" />
        </mxCell>
        <mxCell id="J5TqSiO1KMNlUzjfTJ3k-274" value="12" style="text;html=1;align=center;verticalAlign=middle;resizable=0;points=[];autosize=1;strokeColor=none;fillColor=none;" vertex="1" parent="1">
          <mxGeometry x="2180" y="131.6" width="40" height="30" as="geometry" />
        </mxCell>
        <mxCell id="J5TqSiO1KMNlUzjfTJ3k-275" value="22" style="text;html=1;align=center;verticalAlign=middle;resizable=0;points=[];autosize=1;strokeColor=none;fillColor=none;" vertex="1" parent="1">
          <mxGeometry x="2290" y="131.6" width="40" height="30" as="geometry" />
        </mxCell>
        <mxCell id="J5TqSiO1KMNlUzjfTJ3k-276" value="22" style="text;html=1;align=center;verticalAlign=middle;resizable=0;points=[];autosize=1;strokeColor=none;fillColor=none;" vertex="1" parent="1">
          <mxGeometry x="2340" y="131.6" width="40" height="30" as="geometry" />
        </mxCell>
        <mxCell id="J5TqSiO1KMNlUzjfTJ3k-277" value="26" style="text;html=1;align=center;verticalAlign=middle;resizable=0;points=[];autosize=1;strokeColor=none;fillColor=none;" vertex="1" parent="1">
          <mxGeometry x="2450" y="131.2" width="40" height="30" as="geometry" />
        </mxCell>
        <mxCell id="J5TqSiO1KMNlUzjfTJ3k-278" value="26" style="text;html=1;align=center;verticalAlign=middle;resizable=0;points=[];autosize=1;strokeColor=none;fillColor=none;" vertex="1" parent="1">
          <mxGeometry x="2500" y="131.6" width="40" height="30" as="geometry" />
        </mxCell>
        <mxCell id="J5TqSiO1KMNlUzjfTJ3k-279" value="30" style="text;html=1;align=center;verticalAlign=middle;resizable=0;points=[];autosize=1;strokeColor=none;fillColor=none;" vertex="1" parent="1">
          <mxGeometry x="2620" y="131.6" width="40" height="30" as="geometry" />
        </mxCell>
        <mxCell id="J5TqSiO1KMNlUzjfTJ3k-280" value="62" style="text;html=1;align=center;verticalAlign=middle;resizable=0;points=[];autosize=1;strokeColor=none;fillColor=none;" vertex="1" parent="1">
          <mxGeometry x="3100" y="131.6" width="40" height="30" as="geometry" />
        </mxCell>
        <mxCell id="J5TqSiO1KMNlUzjfTJ3k-281" value="62" style="text;html=1;align=center;verticalAlign=middle;resizable=0;points=[];autosize=1;strokeColor=none;fillColor=none;" vertex="1" parent="1">
          <mxGeometry x="3140" y="131.6" width="40" height="30" as="geometry" />
        </mxCell>
        <mxCell id="J5TqSiO1KMNlUzjfTJ3k-282" value="70" style="text;html=1;align=center;verticalAlign=middle;resizable=0;points=[];autosize=1;strokeColor=none;fillColor=none;" vertex="1" parent="1">
          <mxGeometry x="3260" y="130.8" width="40" height="30" as="geometry" />
        </mxCell>
        <mxCell id="J5TqSiO1KMNlUzjfTJ3k-283" value="70" style="text;html=1;align=center;verticalAlign=middle;resizable=0;points=[];autosize=1;strokeColor=none;fillColor=none;" vertex="1" parent="1">
          <mxGeometry x="3300" y="131.60000000000002" width="40" height="30" as="geometry" />
        </mxCell>
        <mxCell id="J5TqSiO1KMNlUzjfTJ3k-284" value="78" style="text;html=1;align=center;verticalAlign=middle;resizable=0;points=[];autosize=1;strokeColor=none;fillColor=none;" vertex="1" parent="1">
          <mxGeometry x="3420" y="131.6" width="40" height="30" as="geometry" />
        </mxCell>
        <mxCell id="J5TqSiO1KMNlUzjfTJ3k-285" value="14" style="text;html=1;align=center;verticalAlign=middle;resizable=0;points=[];autosize=1;strokeColor=none;fillColor=none;" vertex="1" parent="1">
          <mxGeometry x="3140" y="50.4" width="40" height="30" as="geometry" />
        </mxCell>
        <mxCell id="J5TqSiO1KMNlUzjfTJ3k-286" value="16" style="text;html=1;align=center;verticalAlign=middle;resizable=0;points=[];autosize=1;strokeColor=none;fillColor=none;" vertex="1" parent="1">
          <mxGeometry x="3260" y="55" width="40" height="30" as="geometry" />
        </mxCell>
        <mxCell id="J5TqSiO1KMNlUzjfTJ3k-287" value="78" style="text;html=1;align=center;verticalAlign=middle;resizable=0;points=[];autosize=1;strokeColor=none;fillColor=none;" vertex="1" parent="1">
          <mxGeometry x="3430" y="200" width="40" height="30" as="geometry" />
        </mxCell>
        <mxCell id="J5TqSiO1KMNlUzjfTJ3k-288" value="70" style="text;html=1;align=center;verticalAlign=middle;resizable=0;points=[];autosize=1;strokeColor=none;fillColor=none;" vertex="1" parent="1">
          <mxGeometry x="3300" y="200.00000000000003" width="40" height="30" as="geometry" />
        </mxCell>
        <mxCell id="J5TqSiO1KMNlUzjfTJ3k-289" value="69" style="text;html=1;align=center;verticalAlign=middle;resizable=0;points=[];autosize=1;strokeColor=none;fillColor=none;" vertex="1" parent="1">
          <mxGeometry x="3260" y="110.00000000000003" width="40" height="30" as="geometry" />
        </mxCell>
        <mxCell id="J5TqSiO1KMNlUzjfTJ3k-290" value="70" style="text;html=1;align=center;verticalAlign=middle;resizable=0;points=[];autosize=1;strokeColor=none;fillColor=none;" vertex="1" parent="1">
          <mxGeometry x="3260" y="200.8" width="40" height="30" as="geometry" />
        </mxCell>
        <mxCell id="J5TqSiO1KMNlUzjfTJ3k-291" value="62" style="text;html=1;align=center;verticalAlign=middle;resizable=0;points=[];autosize=1;strokeColor=none;fillColor=none;" vertex="1" parent="1">
          <mxGeometry x="3140" y="200" width="40" height="30" as="geometry" />
        </mxCell>
        <mxCell id="J5TqSiO1KMNlUzjfTJ3k-292" value="62" style="text;html=1;align=center;verticalAlign=middle;resizable=0;points=[];autosize=1;strokeColor=none;fillColor=none;" vertex="1" parent="1">
          <mxGeometry x="3100" y="200" width="40" height="30" as="geometry" />
        </mxCell>
        <mxCell id="J5TqSiO1KMNlUzjfTJ3k-293" value="52" style="text;html=1;align=center;verticalAlign=middle;resizable=0;points=[];autosize=1;strokeColor=none;fillColor=none;" vertex="1" parent="1">
          <mxGeometry x="2980" y="200" width="40" height="30" as="geometry" />
        </mxCell>
        <mxCell id="J5TqSiO1KMNlUzjfTJ3k-297" value="52" style="text;html=1;align=center;verticalAlign=middle;resizable=0;points=[];autosize=1;strokeColor=none;fillColor=none;" vertex="1" parent="1">
          <mxGeometry x="2930" y="268" width="40" height="30" as="geometry" />
        </mxCell>
        <mxCell id="J5TqSiO1KMNlUzjfTJ3k-298" value="52" style="text;html=1;align=center;verticalAlign=middle;resizable=0;points=[];autosize=1;strokeColor=none;fillColor=none;" vertex="1" parent="1">
          <mxGeometry x="2930" y="360" width="40" height="30" as="geometry" />
        </mxCell>
        <mxCell id="J5TqSiO1KMNlUzjfTJ3k-300" value="44" style="text;html=1;align=center;verticalAlign=middle;resizable=0;points=[];autosize=1;strokeColor=none;fillColor=none;" vertex="1" parent="1">
          <mxGeometry x="2820" y="360" width="40" height="30" as="geometry" />
        </mxCell>
        <mxCell id="J5TqSiO1KMNlUzjfTJ3k-301" value="44" style="text;html=1;align=center;verticalAlign=middle;resizable=0;points=[];autosize=1;strokeColor=none;fillColor=none;" vertex="1" parent="1">
          <mxGeometry x="2770" y="360" width="40" height="30" as="geometry" />
        </mxCell>
        <mxCell id="J5TqSiO1KMNlUzjfTJ3k-302" value="38" style="text;html=1;align=center;verticalAlign=middle;resizable=0;points=[];autosize=1;strokeColor=none;fillColor=none;" vertex="1" parent="1">
          <mxGeometry x="2660" y="360" width="40" height="30" as="geometry" />
        </mxCell>
        <mxCell id="J5TqSiO1KMNlUzjfTJ3k-303" value="38" style="text;html=1;align=center;verticalAlign=middle;resizable=0;points=[];autosize=1;strokeColor=none;fillColor=none;" vertex="1" parent="1">
          <mxGeometry x="2610" y="360" width="40" height="30" as="geometry" />
        </mxCell>
        <mxCell id="J5TqSiO1KMNlUzjfTJ3k-304" value="32" style="text;html=1;align=center;verticalAlign=middle;resizable=0;points=[];autosize=1;strokeColor=none;fillColor=none;" vertex="1" parent="1">
          <mxGeometry x="2500" y="360" width="40" height="30" as="geometry" />
        </mxCell>
        <mxCell id="J5TqSiO1KMNlUzjfTJ3k-305" value="32" style="text;html=1;align=center;verticalAlign=middle;resizable=0;points=[];autosize=1;strokeColor=none;fillColor=none;" vertex="1" parent="1">
          <mxGeometry x="2460" y="435" width="40" height="30" as="geometry" />
        </mxCell>
        <mxCell id="J5TqSiO1KMNlUzjfTJ3k-306" value="32" style="text;html=1;align=center;verticalAlign=middle;resizable=0;points=[];autosize=1;strokeColor=none;fillColor=none;" vertex="1" parent="1">
          <mxGeometry x="2290" y="360" width="40" height="30" as="geometry" />
        </mxCell>
        <mxCell id="J5TqSiO1KMNlUzjfTJ3k-307" value="26" style="text;html=1;align=center;verticalAlign=middle;resizable=0;points=[];autosize=1;strokeColor=none;fillColor=none;" vertex="1" parent="1">
          <mxGeometry x="2340" y="435" width="40" height="30" as="geometry" />
        </mxCell>
        <mxCell id="J5TqSiO1KMNlUzjfTJ3k-308" value="26" style="text;html=1;align=center;verticalAlign=middle;resizable=0;points=[];autosize=1;strokeColor=none;fillColor=none;" vertex="1" parent="1">
          <mxGeometry x="2300" y="435" width="40" height="30" as="geometry" />
        </mxCell>
        <mxCell id="J5TqSiO1KMNlUzjfTJ3k-309" value="20" style="text;html=1;align=center;verticalAlign=middle;resizable=0;points=[];autosize=1;strokeColor=none;fillColor=none;" vertex="1" parent="1">
          <mxGeometry x="2180" y="435" width="40" height="30" as="geometry" />
        </mxCell>
        <mxCell id="J5TqSiO1KMNlUzjfTJ3k-310" value="20" style="text;html=1;align=center;verticalAlign=middle;resizable=0;points=[];autosize=1;strokeColor=none;fillColor=none;" vertex="1" parent="1">
          <mxGeometry x="2140" y="435" width="40" height="30" as="geometry" />
        </mxCell>
        <mxCell id="J5TqSiO1KMNlUzjfTJ3k-311" value="14" style="text;html=1;align=center;verticalAlign=middle;resizable=0;points=[];autosize=1;strokeColor=none;fillColor=none;" vertex="1" parent="1">
          <mxGeometry x="2020" y="435" width="40" height="30" as="geometry" />
        </mxCell>
        <mxCell id="J5TqSiO1KMNlUzjfTJ3k-312" value="26" style="text;html=1;align=center;verticalAlign=middle;resizable=0;points=[];autosize=1;strokeColor=none;fillColor=none;" vertex="1" parent="1">
          <mxGeometry x="2180" y="360" width="40" height="30" as="geometry" />
        </mxCell>
        <mxCell id="J5TqSiO1KMNlUzjfTJ3k-313" value="26" style="text;html=1;align=center;verticalAlign=middle;resizable=0;points=[];autosize=1;strokeColor=none;fillColor=none;" vertex="1" parent="1">
          <mxGeometry x="2140" y="360" width="40" height="30" as="geometry" />
        </mxCell>
        <mxCell id="J5TqSiO1KMNlUzjfTJ3k-314" value="20" style="text;html=1;align=center;verticalAlign=middle;resizable=0;points=[];autosize=1;strokeColor=none;fillColor=none;" vertex="1" parent="1">
          <mxGeometry x="2025" y="360" width="40" height="30" as="geometry" />
        </mxCell>
        <mxCell id="J5TqSiO1KMNlUzjfTJ3k-315" value="46" style="text;html=1;align=center;verticalAlign=middle;resizable=0;points=[];autosize=1;strokeColor=none;fillColor=none;" vertex="1" parent="1">
          <mxGeometry x="2830" y="275.4" width="40" height="30" as="geometry" />
        </mxCell>
        <mxCell id="J5TqSiO1KMNlUzjfTJ3k-316" value="46" style="text;html=1;align=center;verticalAlign=middle;resizable=0;points=[];autosize=1;strokeColor=none;fillColor=none;" vertex="1" parent="1">
          <mxGeometry x="2780" y="270" width="40" height="30" as="geometry" />
        </mxCell>
        <mxCell id="J5TqSiO1KMNlUzjfTJ3k-317" value="40" style="text;html=1;align=center;verticalAlign=middle;resizable=0;points=[];autosize=1;strokeColor=none;fillColor=none;" vertex="1" parent="1">
          <mxGeometry x="2660" y="270" width="40" height="30" as="geometry" />
        </mxCell>
        <mxCell id="J5TqSiO1KMNlUzjfTJ3k-318" value="39" style="text;html=1;align=center;verticalAlign=middle;resizable=0;points=[];autosize=1;strokeColor=none;fillColor=none;" vertex="1" parent="1">
          <mxGeometry x="2300" y="275.4" width="40" height="30" as="geometry" />
        </mxCell>
        <mxCell id="J5TqSiO1KMNlUzjfTJ3k-319" value="35" style="text;html=1;align=center;verticalAlign=middle;resizable=0;points=[];autosize=1;strokeColor=none;fillColor=none;" vertex="1" parent="1">
          <mxGeometry x="2180" y="275.4" width="40" height="30" as="geometry" />
        </mxCell>
        <mxCell id="J5TqSiO1KMNlUzjfTJ3k-320" value="35" style="text;html=1;align=center;verticalAlign=middle;resizable=0;points=[];autosize=1;strokeColor=none;fillColor=none;" vertex="1" parent="1">
          <mxGeometry x="2140" y="270" width="40" height="30" as="geometry" />
        </mxCell>
        <mxCell id="J5TqSiO1KMNlUzjfTJ3k-321" value="29" style="text;html=1;align=center;verticalAlign=middle;resizable=0;points=[];autosize=1;strokeColor=none;fillColor=none;" vertex="1" parent="1">
          <mxGeometry x="2020" y="270" width="40" height="30" as="geometry" />
        </mxCell>
        <mxCell id="J5TqSiO1KMNlUzjfTJ3k-322" value="14" style="text;html=1;align=center;verticalAlign=middle;resizable=0;points=[];autosize=1;strokeColor=none;fillColor=none;" vertex="1" parent="1">
          <mxGeometry x="1980" y="360" width="40" height="30" as="geometry" />
        </mxCell>
        <mxCell id="J5TqSiO1KMNlUzjfTJ3k-323" value="4" style="text;html=1;align=center;verticalAlign=middle;resizable=0;points=[];autosize=1;strokeColor=none;fillColor=none;" vertex="1" parent="1">
          <mxGeometry x="1870" y="360" width="30" height="30" as="geometry" />
        </mxCell>
        <mxCell id="J5TqSiO1KMNlUzjfTJ3k-324" value="52" style="text;html=1;align=center;verticalAlign=middle;resizable=0;points=[];autosize=1;strokeColor=none;fillColor=none;" vertex="1" parent="1">
          <mxGeometry x="2610" y="200" width="40" height="30" as="geometry" />
        </mxCell>
        <mxCell id="J5TqSiO1KMNlUzjfTJ3k-327" value="48" style="text;html=1;align=center;verticalAlign=middle;resizable=0;points=[];autosize=1;strokeColor=none;fillColor=none;" vertex="1" parent="1">
          <mxGeometry x="2500" y="200" width="40" height="30" as="geometry" />
        </mxCell>
        <mxCell id="J5TqSiO1KMNlUzjfTJ3k-328" value="48" style="text;html=1;align=center;verticalAlign=middle;resizable=0;points=[];autosize=1;strokeColor=none;fillColor=none;" vertex="1" parent="1">
          <mxGeometry x="2460" y="200" width="40" height="30" as="geometry" />
        </mxCell>
        <mxCell id="J5TqSiO1KMNlUzjfTJ3k-329" value="44" style="text;html=1;align=center;verticalAlign=middle;resizable=0;points=[];autosize=1;strokeColor=none;fillColor=none;" vertex="1" parent="1">
          <mxGeometry x="2350" y="200" width="40" height="30" as="geometry" />
        </mxCell>
        <mxCell id="J5TqSiO1KMNlUzjfTJ3k-330" value="44" style="text;html=1;align=center;verticalAlign=middle;resizable=0;points=[];autosize=1;strokeColor=none;fillColor=none;" vertex="1" parent="1">
          <mxGeometry x="2290" y="200" width="40" height="30" as="geometry" />
        </mxCell>
        <mxCell id="J5TqSiO1KMNlUzjfTJ3k-331" value="34" style="text;html=1;align=center;verticalAlign=middle;resizable=0;points=[];autosize=1;strokeColor=none;fillColor=none;" vertex="1" parent="1">
          <mxGeometry x="2180" y="190" width="40" height="30" as="geometry" />
        </mxCell>
        <mxCell id="J5TqSiO1KMNlUzjfTJ3k-332" value="34" style="text;html=1;align=center;verticalAlign=middle;resizable=0;points=[];autosize=1;strokeColor=none;fillColor=none;" vertex="1" parent="1">
          <mxGeometry x="2140" y="190" width="40" height="30" as="geometry" />
        </mxCell>
        <mxCell id="J5TqSiO1KMNlUzjfTJ3k-333" value="32" style="text;html=1;align=center;verticalAlign=middle;resizable=0;points=[];autosize=1;strokeColor=none;fillColor=none;" vertex="1" parent="1">
          <mxGeometry x="2028" y="200" width="40" height="30" as="geometry" />
        </mxCell>
        <mxCell id="J5TqSiO1KMNlUzjfTJ3k-334" value="32" style="text;html=1;align=center;verticalAlign=middle;resizable=0;points=[];autosize=1;strokeColor=none;fillColor=none;" vertex="1" parent="1">
          <mxGeometry x="1980" y="190" width="40" height="30" as="geometry" />
        </mxCell>
        <mxCell id="J5TqSiO1KMNlUzjfTJ3k-335" value="26" style="text;html=1;align=center;verticalAlign=middle;resizable=0;points=[];autosize=1;strokeColor=none;fillColor=none;" vertex="1" parent="1">
          <mxGeometry x="1865" y="190" width="40" height="30" as="geometry" />
        </mxCell>
        <mxCell id="J5TqSiO1KMNlUzjfTJ3k-336" value="67" style="text;html=1;align=center;verticalAlign=middle;resizable=0;points=[];autosize=1;strokeColor=none;fillColor=none;" vertex="1" parent="1">
          <mxGeometry x="3140" y="110" width="40" height="30" as="geometry" />
        </mxCell>
        <mxCell id="J5TqSiO1KMNlUzjfTJ3k-337" value="67" style="text;html=1;align=center;verticalAlign=middle;resizable=0;points=[];autosize=1;strokeColor=none;fillColor=none;" vertex="1" parent="1">
          <mxGeometry x="1970" y="110" width="40" height="30" as="geometry" />
        </mxCell>
        <mxCell id="J5TqSiO1KMNlUzjfTJ3k-338" value="57" style="text;html=1;align=center;verticalAlign=middle;resizable=0;points=[];autosize=1;strokeColor=none;fillColor=none;" vertex="1" parent="1">
          <mxGeometry x="1865" y="110" width="40" height="30" as="geometry" />
        </mxCell>
        <mxCell id="J5TqSiO1KMNlUzjfTJ3k-340" value="4" style="text;html=1;align=center;verticalAlign=middle;resizable=0;points=[];autosize=1;strokeColor=none;fillColor=none;" vertex="1" parent="1">
          <mxGeometry x="1820" y="275.4" width="30" height="30" as="geometry" />
        </mxCell>
        <mxCell id="J5TqSiO1KMNlUzjfTJ3k-341" value="4" style="text;html=1;align=center;verticalAlign=middle;resizable=0;points=[];autosize=1;strokeColor=none;fillColor=none;" vertex="1" parent="1">
          <mxGeometry x="1820" y="219.99999999999997" width="30" height="30" as="geometry" />
        </mxCell>
        <mxCell id="J5TqSiO1KMNlUzjfTJ3k-342" value="0" style="text;html=1;align=center;verticalAlign=middle;resizable=0;points=[];autosize=1;strokeColor=none;fillColor=none;" vertex="1" parent="1">
          <mxGeometry x="1715" y="220" width="30" height="30" as="geometry" />
        </mxCell>
        <mxCell id="J5TqSiO1KMNlUzjfTJ3k-343" value="0" style="text;html=1;align=center;verticalAlign=middle;resizable=0;points=[];autosize=1;strokeColor=none;fillColor=none;" vertex="1" parent="1">
          <mxGeometry x="1715" y="275.8" width="30" height="30" as="geometry" />
        </mxCell>
      </root>
    </mxGraphModel>
  </diagram>
</mxfile>
